<svg width="86" height="86" viewBox="0 0 86 86" fill="none" xmlns="http://www.w3.org/2000/svg">
<rect width="5.375" height="5.375" transform="matrix(-1 0 0 1 86 37.625)" fill="#CF612E"/>
<rect y="37.625" width="5.375" height="5.375" fill="#CF612E"/>
<rect width="5.375" height="5.375" transform="matrix(-1 0 0 1 80.625 37.625)" fill="#CF612E"/>
<rect x="5.375" y="37.625" width="5.375" height="5.375" fill="#CF612E"/>
<rect width="5.375" height="5.375" transform="matrix(-1 0 0 1 75.25 37.625)" fill="#CF612E"/>
<rect x="10.75" y="37.625" width="5.375" height="5.375" fill="#CF612E"/>
<rect width="5.375" height="5.375" transform="matrix(-1 0 0 1 69.875 37.625)" fill="#CF612E"/>
<rect x="16.125" y="37.625" width="5.375" height="5.375" fill="#CF612E"/>
<rect width="5.375" height="5.375" transform="matrix(-1 0 0 1 64.5 37.625)" fill="#F9DECB"/>
<rect x="21.5" y="37.625" width="5.375" height="5.375" fill="#F9DECB"/>
<rect width="5.375" height="5.375" transform="matrix(-1 0 0 1 59.125 37.625)" fill="#3E3E3E"/>
<rect x="26.875" y="37.625" width="5.375" height="5.375" fill="#3E3E3E"/>
<rect width="5.375" height="5.375" transform="matrix(-1 0 0 1 53.75 37.625)" fill="#F9DECB"/>
<rect width="5.375" height="5.375" transform="matrix(-1 0 0 1 48.375 37.625)" fill="#CF612E"/>
<rect width="5.375" height="5.375" transform="matrix(-1 0 0 1 43 37.625)" fill="#CF612E"/>
<rect width="5.375" height="5.375" transform="matrix(-1 0 0 1 37.625 37.625)" fill="#F9DECB"/>
<rect width="5.375" height="5.375" transform="matrix(-1 0 0 1 80.625 32.25)" fill="#CF612E"/>
<rect x="5.375" y="32.25" width="5.375" height="5.375" fill="#CF612E"/>
<rect width="5.375" height="5.375" transform="matrix(-1 0 0 1 75.25 32.25)" fill="#CF612E"/>
<rect x="10.75" y="32.25" width="5.375" height="5.375" fill="#CF612E"/>
<rect width="5.375" height="5.375" transform="matrix(-1 0 0 1 69.875 32.25)" fill="#CF612E"/>
<rect x="16.125" y="32.25" width="5.375" height="5.375" fill="#CF612E"/>
<rect width="5.375" height="5.375" transform="matrix(-1 0 0 1 64.5 32.25)" fill="#F9DECB"/>
<rect x="21.5" y="32.25" width="5.375" height="5.375" fill="#F9DECB"/>
<rect width="5.375" height="5.375" transform="matrix(-1 0 0 1 59.125 32.25)" fill="#3E3E3E"/>
<rect x="26.875" y="32.25" width="5.375" height="5.375" fill="#3E3E3E"/>
<rect width="5.375" height="5.375" transform="matrix(-1 0 0 1 53.75 32.25)" fill="#3E3E3E"/>
<rect width="5.375" height="5.375" transform="matrix(-1 0 0 1 48.375 32.25)" fill="#3E3E3E"/>
<rect width="5.375" height="5.375" transform="matrix(-1 0 0 1 43 32.25)" fill="#3E3E3E"/>
<rect width="5.375" height="5.375" transform="matrix(-1 0 0 1 37.625 32.25)" fill="#3E3E3E"/>
<rect width="5.375" height="5.375" transform="matrix(-1 0 0 1 80.625 26.875)" fill="#CF612E"/>
<rect x="5.375" y="26.875" width="5.375" height="5.375" fill="#CF612E"/>
<rect width="5.375" height="5.375" transform="matrix(-1 0 0 1 75.25 26.875)" fill="#CF612E"/>
<rect x="10.75" y="26.875" width="5.375" height="5.375" fill="#CF612E"/>
<rect width="5.375" height="5.375" transform="matrix(-1 0 0 1 69.875 26.875)" fill="#CF612E"/>
<rect x="16.125" y="26.875" width="5.375" height="5.375" fill="#CF612E"/>
<rect width="5.375" height="5.375" transform="matrix(-1 0 0 1 64.5 26.875)" fill="#F9DECB"/>
<rect x="21.5" y="26.875" width="5.375" height="5.375" fill="#F9DECB"/>
<rect width="5.375" height="5.375" transform="matrix(-1 0 0 1 59.125 26.875)" fill="#3E3E3E"/>
<rect x="26.875" y="26.875" width="5.375" height="5.375" fill="#3E3E3E"/>
<rect width="5.375" height="5.375" transform="matrix(-1 0 0 1 53.75 26.875)" fill="#CF612E"/>
<rect width="5.375" height="5.375" transform="matrix(-1 0 0 1 48.375 26.875)" fill="#CF612E"/>
<rect width="5.375" height="5.375" transform="matrix(-1 0 0 1 43 26.875)" fill="#CF612E"/>
<rect width="5.375" height="5.375" transform="matrix(-1 0 0 1 37.625 26.875)" fill="#CF612E"/>
<rect width="5.375" height="5.375" transform="matrix(-1 0 0 1 75.25 21.5)" fill="#CF612E"/>
<rect x="10.75" y="21.5" width="5.375" height="5.375" fill="#CF612E"/>
<rect width="5.375" height="5.375" transform="matrix(-1 0 0 1 69.875 21.5)" fill="#3E3E3E"/>
<rect x="16.125" y="21.5" width="5.375" height="5.375" fill="#3E3E3E"/>
<rect width="5.375" height="5.375" transform="matrix(-1 0 0 1 64.5 21.5)" fill="#3E3E3E"/>
<rect x="21.5" y="21.5" width="5.375" height="5.375" fill="#3E3E3E"/>
<rect width="5.375" height="5.375" transform="matrix(-1 0 0 1 59.125 21.5)" fill="#CF612E"/>
<rect x="26.875" y="21.5" width="5.375" height="5.375" fill="#CF612E"/>
<rect width="5.375" height="5.375" transform="matrix(-1 0 0 1 53.75 21.5)" fill="#CF612E"/>
<rect width="5.375" height="5.375" transform="matrix(-1 0 0 1 48.375 21.5)" fill="#CF612E"/>
<rect width="5.375" height="5.375" transform="matrix(-1 0 0 1 43 21.5)" fill="#CF612E"/>
<rect width="5.375" height="5.375" transform="matrix(-1 0 0 1 37.625 21.5)" fill="#CF612E"/>
<rect width="5.375" height="5.375" transform="matrix(-1 0 0 1 69.875 16.125)" fill="#CF612E"/>
<rect x="16.125" y="16.125" width="5.375" height="5.375" fill="#CF612E"/>
<rect width="5.375" height="5.375" transform="matrix(-1 0 0 1 64.5 16.125)" fill="#CF612E"/>
<rect x="21.5" y="16.125" width="5.375" height="5.375" fill="#CF612E"/>
<rect width="5.375" height="5.375" transform="matrix(-1 0 0 1 59.125 16.125)" fill="#CF612E"/>
<rect x="26.875" y="16.125" width="5.375" height="5.375" fill="#CF612E"/>
<rect width="5.375" height="5.375" transform="matrix(-1 0 0 1 53.75 16.125)" fill="#CF612E"/>
<rect width="5.375" height="5.375" transform="matrix(-1 0 0 1 48.375 16.125)" fill="#CF612E"/>
<rect width="5.375" height="5.375" transform="matrix(-1 0 0 1 43 16.125)" fill="#CF612E"/>
<rect width="5.375" height="5.375" transform="matrix(-1 0 0 1 37.625 16.125)" fill="#CF612E"/>
<rect width="5.375" height="5.375" transform="matrix(-1 0 0 1 64.5 10.75)" fill="#CF612E"/>
<rect x="21.5" y="10.75" width="5.375" height="5.375" fill="#CF612E"/>
<rect width="5.375" height="5.375" transform="matrix(-1 0 0 1 59.125 10.75)" fill="#CF612E"/>
<rect x="26.875" y="10.75" width="5.375" height="5.375" fill="#CF612E"/>
<rect width="5.375" height="5.375" transform="matrix(-1 0 0 1 53.75 10.75)" fill="#CF612E"/>
<rect width="5.375" height="5.375" transform="matrix(-1 0 0 1 48.375 10.75)" fill="#CF612E"/>
<rect width="5.375" height="5.375" transform="matrix(-1 0 0 1 43 10.75)" fill="#CF612E"/>
<rect width="5.375" height="5.375" transform="matrix(-1 0 0 1 37.625 10.75)" fill="#CF612E"/>
<rect width="5.375" height="5.375" transform="matrix(-1 0 0 1 59.125 5.375)" fill="#CF612E"/>
<rect x="26.875" y="5.375" width="5.375" height="5.375" fill="#CF612E"/>
<rect width="5.375" height="5.375" transform="matrix(-1 0 0 1 53.75 5.375)" fill="#CF612E"/>
<rect width="5.375" height="5.375" transform="matrix(-1 0 0 1 48.375 5.375)" fill="#CF612E"/>
<rect width="5.375" height="5.375" transform="matrix(-1 0 0 1 43 5.375)" fill="#CF612E"/>
<rect width="5.375" height="5.375" transform="matrix(-1 0 0 1 37.625 5.375)" fill="#CF612E"/>
<rect width="5.375" height="5.375" transform="matrix(-1 0 0 1 53.75 0)" fill="#CF612E"/>
<rect width="5.375" height="5.375" transform="matrix(-1 0 0 1 48.375 0)" fill="#CF612E"/>
<rect width="5.375" height="5.375" transform="matrix(-1 0 0 1 43 0)" fill="#CF612E"/>
<rect width="5.375" height="5.375" transform="matrix(-1 0 0 1 37.625 0)" fill="#CF612E"/>
<rect width="5.375" height="5.375" transform="matrix(-1 0 0 1 86 43)" fill="#CF612E"/>
<rect y="43" width="5.375" height="5.375" fill="#CF612E"/>
<rect width="5.375" height="5.375" transform="matrix(-1 0 0 1 80.625 43)" fill="#CF612E"/>
<rect x="5.375" y="43" width="5.375" height="5.375" fill="#CF612E"/>
<rect width="5.375" height="5.375" transform="matrix(-1 0 0 1 75.25 43)" fill="#CF612E"/>
<rect x="10.75" y="43" width="5.375" height="5.375" fill="#CF612E"/>
<rect width="5.375" height="5.375" transform="matrix(-1 0 0 1 69.875 43)" fill="#CF612E"/>
<rect x="16.125" y="43" width="5.375" height="5.375" fill="#CF612E"/>
<rect width="5.375" height="5.375" transform="matrix(-1 0 0 1 64.5 43)" fill="#F9DECB"/>
<rect x="21.5" y="43" width="5.375" height="5.375" fill="#F9DECB"/>
<rect width="5.375" height="5.375" transform="matrix(-1 0 0 1 59.125 43)" fill="#F9DECB"/>
<rect x="26.875" y="43" width="5.375" height="5.375" fill="#F9DECB"/>
<rect width="5.375" height="5.375" transform="matrix(-1 0 0 1 53.75 43)" fill="#F9DECB"/>
<rect width="5.375" height="5.375" transform="matrix(-1 0 0 1 48.375 43)" fill="#CF612E"/>
<rect width="5.375" height="5.375" transform="matrix(-1 0 0 1 43 43)" fill="#CF612E"/>
<rect width="5.375" height="5.375" transform="matrix(-1 0 0 1 37.625 43)" fill="#F9DECB"/>
<rect width="5.375" height="5.375" transform="matrix(-1 0 0 1 86 48.375)" fill="#CF612E"/>
<rect y="48.375" width="5.375" height="5.375" fill="#CF612E"/>
<rect width="5.375" height="5.375" transform="matrix(-1 0 0 1 80.625 48.375)" fill="#CF612E"/>
<rect x="5.375" y="48.375" width="5.375" height="5.375" fill="#CF612E"/>
<rect width="5.375" height="5.375" transform="matrix(-1 0 0 1 75.25 48.375)" fill="#CF612E"/>
<rect x="10.75" y="48.375" width="5.375" height="5.375" fill="#CF612E"/>
<rect width="5.375" height="5.375" transform="matrix(-1 0 0 1 69.875 48.375)" fill="#CF612E"/>
<rect x="16.125" y="48.375" width="5.375" height="5.375" fill="#CF612E"/>
<rect width="5.375" height="5.375" transform="matrix(-1 0 0 1 64.5 48.375)" fill="#CF612E"/>
<rect x="21.5" y="48.375" width="5.375" height="5.375" fill="#CF612E"/>
<rect width="5.375" height="5.375" transform="matrix(-1 0 0 1 59.125 48.375)" fill="#CF612E"/>
<rect x="26.875" y="48.375" width="5.375" height="5.375" fill="#CF612E"/>
<rect width="5.375" height="5.375" transform="matrix(-1 0 0 1 53.75 48.375)" fill="#CF612E"/>
<rect width="5.375" height="5.375" transform="matrix(-1 0 0 1 48.375 48.375)" fill="#CF612E"/>
<rect width="5.375" height="5.375" transform="matrix(-1 0 0 1 43 48.375)" fill="#CF612E"/>
<rect width="5.375" height="5.375" transform="matrix(-1 0 0 1 37.625 48.375)" fill="#CF612E"/>
<rect width="5.375" height="5.375" transform="matrix(-1 0 0 1 80.625 53.75)" fill="#CF612E"/>
<rect x="5.375" y="53.75" width="5.375" height="5.375" fill="#CF612E"/>
<rect width="5.375" height="5.375" transform="matrix(-1 0 0 1 75.25 53.75)" fill="#CF612E"/>
<rect x="10.75" y="53.75" width="5.375" height="5.375" fill="#CF612E"/>
<rect width="5.375" height="5.375" transform="matrix(-1 0 0 1 69.875 53.75)" fill="#CF612E"/>
<rect x="16.125" y="53.75" width="5.375" height="5.375" fill="#CF612E"/>
<rect width="5.375" height="5.375" transform="matrix(-1 0 0 1 64.5 53.75)" fill="#CF612E"/>
<rect width="5.375" height="5.375" transform="matrix(-1 0 0 1 64.5 59.125)" fill="#F9DECB"/>
<rect width="5.375" height="5.375" transform="matrix(-1 0 0 1 64.5 64.5)" fill="#F9DECB"/>
<rect width="5.375" height="5.375" transform="matrix(-1 0 0 1 64.5 69.875)" fill="#3E3E3E"/>
<rect width="5.375" height="5.375" transform="matrix(-1 0 0 1 64.5 75.25)" fill="#3E3E3E"/>
<rect width="5.375" height="5.375" transform="matrix(-1 0 0 1 64.5 80.625)" fill="#3E3E3E"/>
<rect width="5.375" height="5.375" transform="matrix(-1 0 0 1 75.25 64.5)" fill="#3E3E3E"/>
<rect width="5.375" height="5.375" transform="matrix(-1 0 0 1 75.25 69.875)" fill="#3E3E3E"/>
<rect width="5.375" height="5.375" transform="matrix(-1 0 0 1 75.25 75.25)" fill="#3E3E3E"/>
<rect width="5.375" height="5.375" transform="matrix(-1 0 0 1 75.25 80.625)" fill="#3E3E3E"/>
<rect width="5.375" height="5.375" transform="matrix(-1 0 0 1 80.625 69.875)" fill="#3E3E3E"/>
<rect width="5.375" height="5.375" transform="matrix(-1 0 0 1 80.625 75.25)" fill="#3E3E3E"/>
<rect x="21.5" y="53.75" width="5.375" height="5.375" fill="#CF612E"/>
<rect x="21.5" y="59.125" width="5.375" height="5.375" fill="#F9DECB"/>
<rect x="21.5" y="64.5" width="5.375" height="5.375" fill="#F9DECB"/>
<rect x="21.5" y="69.875" width="5.375" height="5.375" fill="#3E3E3E"/>
<rect x="21.5" y="75.25" width="5.375" height="5.375" fill="#3E3E3E"/>
<rect x="21.5" y="80.625" width="5.375" height="5.375" fill="#3E3E3E"/>
<rect x="16.125" y="69.875" width="5.375" height="5.375" fill="#3E3E3E"/>
<rect x="16.125" y="75.25" width="5.375" height="5.375" fill="#3E3E3E"/>
<rect x="16.125" y="80.625" width="5.375" height="5.375" fill="#CF612E"/>
<rect x="10.75" y="80.625" width="5.375" height="5.375" fill="#CF612E"/>
<rect width="5.375" height="5.375" transform="matrix(-1 0 0 1 59.125 53.75)" fill="#F9DECB"/>
<rect width="5.375" height="5.375" transform="matrix(-1 0 0 1 59.125 59.125)" fill="#F9DECB"/>
<rect width="5.375" height="5.375" transform="matrix(-1 0 0 1 59.125 64.5)" fill="#F9DECB"/>
<rect width="5.375" height="5.375" transform="matrix(-1 0 0 1 59.125 69.875)" fill="#3E3E3E"/>
<rect width="5.375" height="5.375" transform="matrix(-1 0 0 1 59.125 75.25)" fill="#3E3E3E"/>
<rect width="5.375" height="5.375" transform="matrix(-1 0 0 1 59.125 80.625)" fill="#3E3E3E"/>
<rect width="5.375" height="5.375" transform="matrix(-1 0 0 1 69.875 64.5)" fill="#3E3E3E"/>
<rect width="5.375" height="5.375" transform="matrix(-1 0 0 1 69.875 69.875)" fill="#3E3E3E"/>
<rect width="5.375" height="5.375" transform="matrix(-1 0 0 1 69.875 75.25)" fill="#3E3E3E"/>
<rect width="5.375" height="5.375" transform="matrix(-1 0 0 1 69.875 80.625)" fill="#3E3E3E"/>
<rect x="26.875" y="53.75" width="5.375" height="5.375" fill="#F9DECB"/>
<rect x="26.875" y="59.125" width="5.375" height="5.375" fill="#F9DECB"/>
<rect x="26.875" y="64.5" width="5.375" height="5.375" fill="#F9DECB"/>
<rect x="26.875" y="69.875" width="5.375" height="5.375" fill="#F9DECB"/>
<rect x="26.875" y="75.25" width="5.375" height="5.375" fill="#3E3E3E"/>
<rect x="26.875" y="80.625" width="5.375" height="5.375" fill="#3E3E3E"/>
<rect width="5.375" height="5.375" transform="matrix(-1 0 0 1 53.75 53.75)" fill="#F9DECB"/>
<rect width="5.375" height="5.375" transform="matrix(-1 0 0 1 53.75 59.125)" fill="#F9DECB"/>
<rect width="5.375" height="5.375" transform="matrix(-1 0 0 1 53.75 64.5)" fill="#F9DECB"/>
<rect width="5.375" height="5.375" transform="matrix(-1 0 0 1 53.75 69.875)" fill="#F9DECB"/>
<rect width="5.375" height="5.375" transform="matrix(-1 0 0 1 53.75 75.25)" fill="#3E3E3E"/>
<rect width="5.375" height="5.375" transform="matrix(-1 0 0 1 53.75 80.625)" fill="#3E3E3E"/>
<rect width="5.375" height="5.375" transform="matrix(-1 0 0 1 48.375 53.75)" fill="#F9DECB"/>
<rect width="5.375" height="5.375" transform="matrix(-1 0 0 1 48.375 59.125)" fill="#F9DECB"/>
<rect width="5.375" height="5.375" transform="matrix(-1 0 0 1 48.375 64.5)" fill="#F9DECB"/>
<rect width="5.375" height="5.375" transform="matrix(-1 0 0 1 48.375 69.875)" fill="#F9DECB"/>
<rect width="5.375" height="5.375" transform="matrix(-1 0 0 1 48.375 75.25)" fill="#F9DECB"/>
<rect width="5.375" height="5.375" transform="matrix(-1 0 0 1 48.375 80.625)" fill="#CF612E"/>
<rect width="5.375" height="5.375" transform="matrix(-1 0 0 1 43 53.75)" fill="#F9DECB"/>
<rect width="5.375" height="5.375" transform="matrix(-1 0 0 1 43 59.125)" fill="#F9DECB"/>
<rect width="5.375" height="5.375" transform="matrix(-1 0 0 1 43 64.5)" fill="#F9DECB"/>
<rect width="5.375" height="5.375" transform="matrix(-1 0 0 1 43 69.875)" fill="#F9DECB"/>
<rect width="5.375" height="5.375" transform="matrix(-1 0 0 1 43 75.25)" fill="#F9DECB"/>
<rect width="5.375" height="5.375" transform="matrix(-1 0 0 1 43 80.625)" fill="#F9DECB"/>
<rect width="5.375" height="5.375" transform="matrix(-1 0 0 1 37.625 53.75)" fill="#F9DECB"/>
<rect width="5.375" height="5.375" transform="matrix(-1 0 0 1 37.625 59.125)" fill="#F9DECB"/>
<rect width="5.375" height="5.375" transform="matrix(-1 0 0 1 37.625 64.5)" fill="#F9DECB"/>
<rect width="5.375" height="5.375" transform="matrix(-1 0 0 1 37.625 69.875)" fill="#F9DECB"/>
<rect width="5.375" height="5.375" transform="matrix(-1 0 0 1 37.625 75.25)" fill="#F9DECB"/>
<rect width="5.375" height="5.375" transform="matrix(-1 0 0 1 37.625 80.625)" fill="#3E3E3E"/>
</svg>
