<svg width="40" height="44" viewBox="0 0 40 44" fill="none" xmlns="http://www.w3.org/2000/svg">
<rect x="31.7778" y="4.88892" width="2.44444" height="2.44444" fill="#F6C286"/>
<rect x="31.7778" y="7.33337" width="2.44444" height="2.44444" fill="#F6C286"/>
<rect x="31.7778" y="9.77771" width="2.44444" height="2.44444" fill="#F6C286"/>
<rect x="29.3333" y="4.88892" width="2.44444" height="2.44444" fill="#CF612E"/>
<rect x="29.3333" y="2.44446" width="2.44444" height="2.44444" fill="white"/>
<rect x="26.8889" y="2.44446" width="2.44444" height="2.44444" fill="white"/>
<rect x="24.4445" y="2.44446" width="2.44444" height="2.44444" fill="white"/>
<rect x="24.4445" y="4.88892" width="2.44444" height="2.44444" fill="white"/>
<rect x="22" y="7.33337" width="2.44444" height="2.44444" fill="#F6C286"/>
<rect x="22" y="9.77771" width="2.44444" height="2.44444" fill="#F6C286"/>
<rect x="22" y="12.2223" width="2.44444" height="2.44444" fill="#F6C286"/>
<rect x="22" y="17.1111" width="2.44444" height="2.44444" fill="#F6C286"/>
<rect x="22" y="14.6667" width="2.44444" height="2.44444" fill="#F6C286"/>
<rect x="26.8889" y="14.6667" width="2.44444" height="2.44444" fill="#F6C286"/>
<rect x="22" y="19.5555" width="2.44444" height="2.44444" fill="white"/>
<rect x="24.4445" y="14.6667" width="2.44444" height="2.44444" fill="#F6C286"/>
<rect x="29.3333" y="14.6667" width="2.44444" height="2.44444" fill="#F6C286"/>
<rect x="24.4445" y="12.2223" width="2.44444" height="2.44444" fill="#F6C286"/>
<rect x="24.4445" y="17.1111" width="2.44444" height="2.44444" fill="#F6C286"/>
<rect x="24.4445" y="19.5555" width="2.44444" height="2.44444" fill="#F6C286"/>
<rect x="24.4445" y="22" width="2.44444" height="2.44444" fill="white"/>
<rect x="26.8889" width="2.44444" height="2.44444" fill="white"/>
<rect x="34.2222" y="7.33337" width="2.44444" height="2.44444" fill="#F6C286"/>
<rect x="34.2222" y="9.77771" width="2.44444" height="2.44444" fill="#F6C286"/>
<rect x="34.2222" y="12.2223" width="2.44444" height="2.44444" fill="#F6C286"/>
<rect x="36.6667" y="12.2223" width="2.44444" height="2.44444" fill="#F6C286"/>
<rect x="36.6667" y="14.6667" width="2.44444" height="2.44444" fill="#F6C286"/>
<rect x="36.6667" y="17.1111" width="2.44444" height="2.44444" fill="#F6C286"/>
<rect x="34.2222" y="14.6667" width="2.44444" height="2.44444" fill="#F6C286"/>
<rect x="31.7778" y="14.6667" width="2.44444" height="2.44444" fill="#F6C286"/>
<rect x="31.7778" y="12.2223" width="2.44444" height="2.44444" fill="#F6C286"/>
<rect x="29.3333" y="12.2223" width="2.44444" height="2.44444" fill="#F6C286"/>
<rect x="29.3333" y="9.77771" width="2.44444" height="2.44444" fill="white"/>
<rect x="29.3333" y="7.33337" width="2.44444" height="2.44444" fill="#CF612E"/>
<rect x="26.8889" y="12.2223" width="2.44444" height="2.44444" fill="white"/>
<rect x="26.8889" y="9.77771" width="2.44444" height="2.44444" fill="white"/>
<rect x="26.8889" y="7.33337" width="2.44444" height="2.44444" fill="white"/>
<rect x="26.8889" y="4.88892" width="2.44444" height="2.44444" fill="white"/>
<rect x="24.4445" y="9.77771" width="2.44444" height="2.44444" fill="white"/>
<rect x="24.4445" y="7.33337" width="2.44444" height="2.44444" fill="white"/>
<rect x="26.8889" y="19.5555" width="2.44444" height="2.44444" fill="#F6C286"/>
<rect x="26.8889" y="22" width="2.44444" height="2.44444" fill="#F6C286"/>
<rect x="29.3333" y="22" width="2.44444" height="2.44444" fill="#F6C286"/>
<rect x="26.8889" y="24.4445" width="2.44444" height="2.44444" fill="#F6C286"/>
<rect x="26.8889" y="29.3334" width="2.44444" height="2.44444" fill="white"/>
<rect x="24.4445" y="24.4445" width="2.44444" height="2.44444" fill="white"/>
<rect x="26.8889" y="26.8889" width="2.44444" height="2.44444" fill="white"/>
<rect x="26.8889" y="31.7778" width="2.44444" height="2.44444" fill="white"/>
<rect x="26.8889" y="34.2222" width="2.44444" height="2.44444" fill="white"/>
<rect x="24.4445" y="34.2222" width="2.44444" height="2.44444" fill="white"/>
<rect x="24.4445" y="36.6667" width="2.44444" height="2.44444" fill="white"/>
<rect x="22" y="36.6667" width="2.44444" height="2.44444" fill="white"/>
<rect x="19.5555" y="36.6667" width="2.44444" height="2.44444" fill="white"/>
<rect x="19.5555" y="39.1111" width="2.44444" height="2.44444" fill="white"/>
<rect x="17.1111" y="39.1111" width="2.44444" height="2.44444" fill="white"/>
<rect x="14.6667" y="39.1111" width="2.44444" height="2.44444" fill="white"/>
<rect x="12.2222" y="39.1111" width="2.44444" height="2.44444" fill="white"/>
<rect x="9.77777" y="39.1111" width="2.44444" height="2.44444" fill="white"/>
<rect x="9.77777" y="36.6667" width="2.44444" height="2.44444" fill="white"/>
<rect x="7.33331" y="36.6667" width="2.44444" height="2.44444" fill="white"/>
<rect x="4.88892" y="36.6667" width="2.44444" height="2.44444" fill="white"/>
<rect x="4.88892" y="34.2222" width="2.44444" height="2.44444" fill="white"/>
<rect x="2.44446" y="34.2222" width="2.44444" height="2.44444" fill="white"/>
<rect y="34.2222" width="2.44444" height="2.44444" fill="white"/>
<rect x="24.4445" y="26.8889" width="2.44444" height="2.44444" fill="white"/>
<rect x="29.3333" y="24.4445" width="2.44444" height="2.44444" fill="#F6C286"/>
<rect x="31.7778" y="24.4445" width="2.44444" height="2.44444" fill="#F6C286"/>
<rect x="34.2222" y="24.4445" width="2.44444" height="2.44444" fill="#F6C286"/>
<rect x="29.3333" y="26.8889" width="2.44444" height="2.44444" fill="#F6C286"/>
<rect x="29.3333" y="29.3334" width="2.44444" height="2.44444" fill="#F6C286"/>
<rect x="26.8889" y="36.6667" width="2.44444" height="2.44444" fill="#F6C286"/>
<rect x="26.8889" y="39.1111" width="2.44444" height="2.44444" fill="#F6C286"/>
<rect x="7.33331" y="39.1111" width="2.44444" height="2.44444" fill="#F6C286"/>
<rect x="9.53333" y="41.5555" width="2.44444" height="2.44444" fill="#F6C286"/>
<rect x="22" y="39.1111" width="2.44444" height="2.44444" fill="#F6C286"/>
<rect x="2.44446" y="39.1111" width="2.44444" height="2.44444" fill="#F6C286"/>
<rect x="4.64447" y="41.5555" width="2.44444" height="2.44444" fill="#F6C286"/>
<rect x="29.3333" y="31.7778" width="2.44444" height="2.44444" fill="#F6C286"/>
<rect x="31.7778" y="26.8889" width="2.44444" height="2.44444" fill="#F6C286"/>
<rect x="22" y="41.5555" width="2.44444" height="2.44444" fill="#F6C286"/>
<rect x="19.5555" y="41.5555" width="2.44444" height="2.44444" fill="#F6C286"/>
<rect x="24.4445" y="39.1111" width="2.44444" height="2.44444" fill="#F6C286"/>
<rect x="4.88892" y="39.1111" width="2.44444" height="2.44444" fill="#F6C286"/>
<rect x="7.08887" y="41.5555" width="2.44444" height="2.44444" fill="#F6C286"/>
<rect x="24.4445" y="41.5555" width="2.44444" height="2.44444" fill="#F6C286"/>
<rect x="34.2222" y="17.1111" width="2.44444" height="2.44444" fill="#F6C286"/>
<rect x="34.2222" y="17.1111" width="2.44444" height="2.44444" fill="#F6C286"/>
<rect x="2.44446" y="31.7778" width="2.44444" height="2.44444" fill="#CF612E"/>
<rect x="2.44446" y="29.3334" width="2.44444" height="2.44444" fill="#F6C286"/>
<rect x="2.44446" y="26.8889" width="2.44444" height="2.44444" fill="#CF612E"/>
<rect x="2.44446" y="24.4445" width="2.44444" height="2.44444" fill="#CF612E"/>
<rect x="2.44446" y="22" width="2.44444" height="2.44444" fill="#CF612E"/>
<rect x="4.88892" y="19.5555" width="2.44444" height="2.44444" fill="#CF612E"/>
<rect x="7.33331" y="17.1111" width="2.44444" height="2.44444" fill="#CF612E"/>
<rect x="7.33331" y="24.4445" width="2.44444" height="2.44444" fill="white"/>
<rect x="4.88892" y="24.4445" width="2.44444" height="2.44444" fill="white"/>
<rect x="7.33331" y="29.3334" width="2.44444" height="2.44444" fill="#F6C286"/>
<rect x="4.88892" y="29.3334" width="2.44444" height="2.44444" fill="#CF612E"/>
<rect x="7.33331" y="34.2222" width="2.44444" height="2.44444" fill="#F6C286"/>
<rect x="7.33331" y="22" width="2.44444" height="2.44444" fill="#CF612E"/>
<rect x="4.88892" y="22" width="2.44444" height="2.44444" fill="#CF612E"/>
<rect x="7.33331" y="19.5555" width="2.44444" height="2.44444" fill="#F6C286"/>
<rect x="7.33331" y="26.8889" width="2.44444" height="2.44444" fill="#CF612E"/>
<rect x="4.88892" y="26.8889" width="2.44444" height="2.44444" fill="white"/>
<rect x="7.33331" y="31.7778" width="2.44444" height="2.44444" fill="#CF612E"/>
<rect x="4.88892" y="31.7778" width="2.44444" height="2.44444" fill="#F6C286"/>
<rect x="9.77777" y="17.1111" width="2.44444" height="2.44444" fill="#CF612E"/>
<rect x="9.77777" y="24.4445" width="2.44444" height="2.44444" fill="#CF612E"/>
<rect x="9.77777" y="29.3334" width="2.44444" height="2.44444" fill="#CF612E"/>
<rect x="9.77777" y="34.2222" width="2.44444" height="2.44444" fill="#CF612E"/>
<rect x="9.77777" y="22" width="2.44444" height="2.44444" fill="#F6C286"/>
<rect x="9.77777" y="19.5555" width="2.44444" height="2.44444" fill="#CF612E"/>
<rect x="9.77777" y="26.8889" width="2.44444" height="2.44444" fill="#F6C286"/>
<rect x="9.77777" y="31.7778" width="2.44444" height="2.44444" fill="#CF612E"/>
<rect x="12.2222" y="17.1111" width="2.44444" height="2.44444" fill="#CF612E"/>
<rect x="12.2222" y="24.4445" width="2.44444" height="2.44444" fill="#F6C286"/>
<rect x="12.2222" y="29.3334" width="2.44444" height="2.44444" fill="#CF612E"/>
<rect x="12.2222" y="34.2222" width="2.44444" height="2.44444" fill="#F6C286"/>
<rect x="12.2222" y="36.6667" width="2.44444" height="2.44444" fill="#CF612E"/>
<rect x="12.2222" y="22" width="2.44444" height="2.44444" fill="#CF612E"/>
<rect x="12.2222" y="19.5555" width="2.44444" height="2.44444" fill="#CF612E"/>
<rect x="12.2222" y="26.8889" width="2.44444" height="2.44444" fill="#CF612E"/>
<rect x="12.2222" y="31.7778" width="2.44444" height="2.44444" fill="#CF612E"/>
<rect x="14.6667" y="17.1111" width="2.44444" height="2.44444" fill="#CF612E"/>
<rect x="14.6667" y="24.4445" width="2.44444" height="2.44444" fill="#CF612E"/>
<rect x="19.5555" y="24.4445" width="2.44444" height="2.44444" fill="#CF612E"/>
<rect x="14.6667" y="29.3334" width="2.44444" height="2.44444" fill="#CF612E"/>
<rect x="19.5555" y="29.3334" width="2.44444" height="2.44444" fill="#CF612E"/>
<rect x="14.6667" y="34.2222" width="2.44444" height="2.44444" fill="#CF612E"/>
<rect x="14.6667" y="36.6667" width="2.44444" height="2.44444" fill="#CF612E"/>
<rect x="19.5555" y="34.2222" width="2.44444" height="2.44444" fill="#CF612E"/>
<rect x="14.6667" y="22" width="2.44444" height="2.44444" fill="#F6C286"/>
<rect x="14.6667" y="19.5555" width="2.44444" height="2.44444" fill="#CF612E"/>
<rect x="14.6667" y="26.8889" width="2.44444" height="2.44444" fill="#F6C286"/>
<rect x="19.5555" y="26.8889" width="2.44444" height="2.44444" fill="#F6C286"/>
<rect x="14.6667" y="31.7778" width="2.44444" height="2.44444" fill="#F6C286"/>
<rect x="19.5555" y="31.7778" width="2.44444" height="2.44444" fill="#F6C286"/>
<rect x="17.1111" y="17.1111" width="2.44444" height="2.44444" fill="#CF612E"/>
<rect x="17.1111" y="24.4445" width="2.44444" height="2.44444" fill="#CF612E"/>
<rect x="22" y="24.4445" width="2.44444" height="2.44444" fill="#F6C286"/>
<rect x="17.1111" y="29.3334" width="2.44444" height="2.44444" fill="#F6C286"/>
<rect x="22" y="29.3334" width="2.44444" height="2.44444" fill="#CF612E"/>
<rect x="24.4445" y="29.3334" width="2.44444" height="2.44444" fill="#CF612E"/>
<rect x="17.1111" y="34.2222" width="2.44444" height="2.44444" fill="#CF612E"/>
<rect x="17.1111" y="36.6667" width="2.44444" height="2.44444" fill="#CF612E"/>
<rect x="22" y="34.2222" width="2.44444" height="2.44444" fill="#F6C286"/>
<rect x="17.1111" y="22" width="2.44444" height="2.44444" fill="#CF612E"/>
<rect x="17.1111" y="26.8889" width="2.44444" height="2.44444" fill="#CF612E"/>
<rect x="22" y="26.8889" width="2.44444" height="2.44444" fill="#CF612E"/>
<rect x="17.1111" y="31.7778" width="2.44444" height="2.44444" fill="#CF612E"/>
<rect x="22" y="31.7778" width="2.44444" height="2.44444" fill="#CF612E"/>
<rect x="24.4445" y="31.7778" width="2.44444" height="2.44444" fill="#CF612E"/>
<rect x="17.1111" y="19.5555" width="2.44444" height="2.44444" fill="#F6C286"/>
<rect x="19.5555" y="19.5555" width="2.44444" height="2.44444" fill="#CF612E"/>
<rect x="19.5555" y="22" width="2.44444" height="2.44444" fill="#CF612E"/>
<rect x="22" y="22" width="2.44444" height="2.44444" fill="#CF612E"/>
</svg>
