<svg width="25" height="22" viewBox="0 0 25 22" fill="none" xmlns="http://www.w3.org/2000/svg">
<g filter="url(#filter0_d_210_826)">
<mask id="path-1-inside-1_210_826" fill="white">
<path fill-rule="evenodd" clip-rule="evenodd" d="M14.9482 2V0H10.9275V2H5.90179V4H19.9743V2H14.9482ZM19.9741 14H5.90155V10H3.89119V14V16H8.91689V20H10.9273V16H14.9481V18H10.9275V20H14.9481V20H16.9584V16H21.9844V14L21.9844 10H19.9742V4H17.9638V12H19.9741V14ZM5.90179 4V12H7.91215V4H5.90179Z"/>
</mask>
<path fill-rule="evenodd" clip-rule="evenodd" d="M14.9482 2V0H10.9275V2H5.90179V4H19.9743V2H14.9482ZM19.9741 14H5.90155V10H3.89119V14V16H8.91689V20H10.9273V16H14.9481V18H10.9275V20H14.9481V20H16.9584V16H21.9844V14L21.9844 10H19.9742V4H17.9638V12H19.9741V14ZM5.90179 4V12H7.91215V4H5.90179Z" fill="white"/>
<path d="M14.9482 0H15.9482V-1H14.9482V0ZM14.9482 2H13.9482V3H14.9482V2ZM10.9275 0V-1H9.9275V0H10.9275ZM10.9275 2V3H11.9275V2H10.9275ZM5.90179 2V1H4.90179V2H5.90179ZM5.90179 4H4.90179V5H5.90179V4ZM19.9743 4V5H20.9743V4H19.9743ZM19.9743 2H20.9743V1H19.9743V2ZM5.90155 14H4.90155V15H5.90155V14ZM19.9741 14V15H20.9741V14H19.9741ZM5.90155 10H6.90155V9.00002H5.90155V10ZM3.89119 10V9.00002H2.89119V10H3.89119ZM3.89119 16H2.89119V17H3.89119V16ZM8.91689 16H9.91689V15H8.91689V16ZM8.91689 20H7.91689V21H8.91689V20ZM10.9273 20V21H11.9273V20H10.9273ZM10.9273 16V15H9.92725V16H10.9273ZM14.9481 16H15.9481V15H14.9481V16ZM14.9481 18V19H15.9481V18H14.9481ZM10.9275 18V17H9.9275V18H10.9275ZM10.9275 20H9.9275V21H10.9275V20ZM14.9481 20H15.9481V19H14.9481V20ZM14.9481 20H13.9481V21H14.9481V20ZM16.9584 20V21H17.9584V20H16.9584ZM16.9584 16V15H15.9584V16H16.9584ZM21.9844 16V17H22.9844V16H21.9844ZM21.9844 14L20.9844 14V14H21.9844ZM21.9844 10L22.9844 10L22.9844 9.00002H21.9844V10ZM19.9742 10H18.9742V11H19.9742V10ZM19.9742 4H20.9742V3H19.9742V4ZM17.9638 4V3H16.9638V4H17.9638ZM17.9638 12H16.9638V13H17.9638V12ZM19.9741 12H20.9741V11H19.9741V12ZM5.90179 12H4.90179V13H5.90179V12ZM5.90179 4V3H4.90179V4H5.90179ZM7.91215 12V13H8.91215V12H7.91215ZM7.91215 4H8.91215V3H7.91215V4ZM13.9482 0V2H15.9482V0H13.9482ZM10.9275 1H14.9482V-1H10.9275V1ZM11.9275 2V0H9.9275V2H11.9275ZM5.90179 3H10.9275V1H5.90179V3ZM6.90179 4V2H4.90179V4H6.90179ZM19.9743 3H5.90179V5H19.9743V3ZM18.9743 2V4H20.9743V2H18.9743ZM14.9482 3H19.9743V1H14.9482V3ZM5.90155 15H19.9741V13H5.90155V15ZM4.90155 10V14H6.90155V10H4.90155ZM3.89119 11H5.90155V9.00002H3.89119V11ZM4.89119 14V10H2.89119V14H4.89119ZM4.89119 16V14H2.89119V16H4.89119ZM8.91689 15H3.89119V17H8.91689V15ZM9.91689 20V16H7.91689V20H9.91689ZM10.9273 19H8.91689V21H10.9273V19ZM9.92725 16V20H11.9273V16H9.92725ZM14.9481 15H10.9273V17H14.9481V15ZM15.9481 18V16H13.9481V18H15.9481ZM10.9275 19H14.9481V17H10.9275V19ZM11.9275 20V18H9.9275V20H11.9275ZM14.9481 19H10.9275V21H14.9481V19ZM15.9481 20V20H13.9481V20H15.9481ZM16.9584 19H14.9481V21H16.9584V19ZM15.9584 16V20H17.9584V16H15.9584ZM21.9844 15H16.9584V17H21.9844V15ZM20.9844 14V16H22.9844V14H20.9844ZM20.9844 10L20.9844 14L22.9844 14L22.9844 10L20.9844 10ZM19.9742 11H21.9844V9.00002H19.9742V11ZM18.9742 4V10H20.9742V4H18.9742ZM17.9638 5H19.9742V3H17.9638V5ZM18.9638 12V4H16.9638V12H18.9638ZM19.9741 11H17.9638V13H19.9741V11ZM20.9741 14V12H18.9741V14H20.9741ZM6.90179 12V4H4.90179V12H6.90179ZM7.91215 11H5.90179V13H7.91215V11ZM6.91215 4V12H8.91215V4H6.91215ZM5.90179 5H7.91215V3H5.90179V5Z" fill="white" mask="url(#path-1-inside-1_210_826)"/>
</g>
<defs>
<filter id="filter0_d_210_826" x="-0.10881" y="0" width="26.0932" height="28" filterUnits="userSpaceOnUse" color-interpolation-filters="sRGB">
<feFlood flood-opacity="0" result="BackgroundImageFix"/>
<feColorMatrix in="SourceAlpha" type="matrix" values="0 0 0 0 0 0 0 0 0 0 0 0 0 0 0 0 0 0 127 0" result="hardAlpha"/>
<feOffset dy="4"/>
<feGaussianBlur stdDeviation="2"/>
<feComposite in2="hardAlpha" operator="out"/>
<feColorMatrix type="matrix" values="0 0 0 0 0 0 0 0 0 0 0 0 0 0 0 0 0 0 0.25 0"/>
<feBlend mode="normal" in2="BackgroundImageFix" result="effect1_dropShadow_210_826"/>
<feBlend mode="normal" in="SourceGraphic" in2="effect1_dropShadow_210_826" result="shape"/>
</filter>
</defs>
</svg>
