<svg width="66" height="66" viewBox="0 0 66 66" fill="none" xmlns="http://www.w3.org/2000/svg">
<g filter="url(#filter0_d_99_12407)">
<path fill-rule="evenodd" clip-rule="evenodd" d="M46.5556 1H15.4444V7.22222H9.22222V13.4444H3V44.5556H9.22222V50.7778H15.4444V57H46.5556V50.7778H52.7778V44.5556H59V13.4444H52.7778V7.22222H46.5556V1ZM46.5556 7.22222V13.4444L52.7778 13.4444V44.5556H46.5556V50.7778H15.4444L15.4444 44.5556H9.22222V13.4444L15.4444 13.4444L15.4444 7.22222H46.5556Z" fill="#547811"/>
<rect x="15.4328" y="7.21652" width="31.1247" height="43.571" fill="#547811"/>
<rect x="9.21049" y="13.4388" width="43.577" height="31.1303" fill="#547811"/>
<path fill-rule="evenodd" clip-rule="evenodd" d="M23 20H39V22H23V20ZM23 24H39H41V26V30V32H39V38H37V32H33V36V38H31H25H23V36V32H21V30V26V24H23ZM31 36V32H25V36H31ZM31 30H33H37H39V26H23V30H25H31Z" fill="white"/>
</g>
<defs>
<filter id="filter0_d_99_12407" x="0" y="0" width="66" height="66" filterUnits="userSpaceOnUse" color-interpolation-filters="sRGB">
<feFlood flood-opacity="0" result="BackgroundImageFix"/>
<feColorMatrix in="SourceAlpha" type="matrix" values="0 0 0 0 0 0 0 0 0 0 0 0 0 0 0 0 0 0 127 0" result="hardAlpha"/>
<feOffset dx="2" dy="4"/>
<feGaussianBlur stdDeviation="2.5"/>
<feComposite in2="hardAlpha" operator="out"/>
<feColorMatrix type="matrix" values="0 0 0 0 0 0 0 0 0 0 0 0 0 0 0 0 0 0 0.3 0"/>
<feBlend mode="normal" in2="BackgroundImageFix" result="effect1_dropShadow_99_12407"/>
<feBlend mode="normal" in="SourceGraphic" in2="effect1_dropShadow_99_12407" result="shape"/>
</filter>
</defs>
</svg>
