<svg width="213" height="56" viewBox="0 0 213 56" fill="none" xmlns="http://www.w3.org/2000/svg">
<rect x="20" width="173" height="4" fill="#3E3E3E"/>
<rect x="20" y="52" width="173" height="4" fill="#3E3E3E"/>
<rect x="193" y="4" width="8" height="4" fill="#3E3E3E"/>
<rect x="193" y="48" width="8" height="4" fill="#3E3E3E"/>
<rect x="201" y="8" width="4" height="4" fill="#3E3E3E"/>
<rect x="201" y="44" width="4" height="4" fill="#3E3E3E"/>
<rect x="205" y="12" width="4" height="12" fill="#3E3E3E"/>
<rect x="205" y="32" width="4" height="12" fill="#3E3E3E"/>
<rect x="209" y="24" width="4" height="8" fill="#3E3E3E"/>
<rect x="20" y="52" width="8" height="4" transform="rotate(-180 20 52)" fill="#3E3E3E"/>
<rect x="20" y="8" width="8" height="4" transform="rotate(-180 20 8)" fill="#3E3E3E"/>
<rect x="12" y="48" width="4" height="4" transform="rotate(-180 12 48)" fill="#3E3E3E"/>
<rect x="12" y="12" width="4" height="4" transform="rotate(-180 12 12)" fill="#3E3E3E"/>
<rect x="8" y="44" width="4" height="12" transform="rotate(-180 8 44)" fill="#3E3E3E"/>
<rect x="8" y="24" width="4" height="12" transform="rotate(-180 8 24)" fill="#3E3E3E"/>
<rect x="4" y="32" width="4" height="8" transform="rotate(-180 4 32)" fill="#3E3E3E"/>
</svg>
