<svg width="224" height="38" viewBox="0 0 224 38" fill="none" xmlns="http://www.w3.org/2000/svg">
<path d="M2.025 2V0H14.025V2H2.025ZM18.175 2V0H30.175V2H18.175ZM34.325 2V0H46.325V2H34.325ZM50.475 2V0H62.475V2H50.475ZM66.625 2V0H78.625V2H66.625ZM82.775 2V0H94.775V2H82.775ZM98.925 2V0H110.925V2H98.925ZM115.075 2V0H127.075V2H115.075ZM131.225 2V0H143.225V2H131.225ZM147.375 2V0H159.375V2H147.375ZM163.525 2V0H175.525V2H163.525ZM179.675 2V0H191.675V2H179.675ZM195.825 2V0H207.825V2H195.825ZM211.975 2V0H223.975V2H211.975ZM2.025 24V22H4.025V20H0.0250015V18H4.025V16H2.025V14H6.025V16H8.025V14H12.025V16H10.025V18H14.025V20H10.025V22H12.025V24H8.025V22H6.025V24H2.025ZM18.175 24V22H20.175V20H16.175V18H20.175V16H18.175V14H22.175V16H24.175V14H28.175V16H26.175V18H30.175V20H26.175V22H28.175V24H24.175V22H22.175V24H18.175ZM32.325 26V12H44.325V14H46.325V18H44.325V20H46.325V24H44.325V26H32.325ZM36.325 18H42.325V14H36.325V18ZM36.325 24H42.325V20H36.325V24ZM54.475 14V12H58.475V14H54.475ZM50.475 26V24H54.475V18H52.475V16H58.475V24H62.475V26H50.475ZM66.625 26V24H64.625V18H66.625V16H76.625V18H78.625V22H68.625V24H76.625V26H66.625ZM68.625 20H74.625V18H68.625V20ZM80.775 26V16H92.775V18H94.775V26H90.775V18H84.775V26H80.775ZM102.925 26V24H100.925V22H98.925V16H102.925V22H106.925V16H110.925V22H108.925V24H106.925V26H102.925ZM115.075 26V24H113.075V18H115.075V16H125.075V18H127.075V22H117.075V24H125.075V26H115.075ZM117.075 20H123.075V18H117.075V20ZM129.225 26V16H141.225V18H143.225V26H139.225V18H133.225V26H129.225ZM151.375 14V12H155.375V14H151.375ZM147.375 26V24H151.375V18H149.375V16H155.375V24H159.375V26H147.375ZM163.525 26V24H161.525V18H163.525V16H171.525V12H175.525V26H163.525ZM165.525 24H171.525V18H165.525V24ZM179.675 26V24H177.675V18H179.675V16H189.675V18H191.675V24H189.675V26H179.675ZM181.675 24H187.675V18H181.675V24ZM195.825 24V22H197.825V20H193.825V18H197.825V16H195.825V14H199.825V16H201.825V14H205.825V16H203.825V18H207.825V20H203.825V22H205.825V24H201.825V22H199.825V24H195.825ZM211.975 24V22H213.975V20H209.975V18H213.975V16H211.975V14H215.975V16H217.975V14H221.975V16H219.975V18H223.975V20H219.975V22H221.975V24H217.975V22H215.975V24H211.975ZM2.025 38V36H14.025V38H2.025ZM18.175 38V36H30.175V38H18.175ZM34.325 38V36H46.325V38H34.325ZM50.475 38V36H62.475V38H50.475ZM66.625 38V36H78.625V38H66.625ZM82.775 38V36H94.775V38H82.775ZM98.925 38V36H110.925V38H98.925ZM115.075 38V36H127.075V38H115.075ZM131.225 38V36H143.225V38H131.225ZM147.375 38V36H159.375V38H147.375ZM163.525 38V36H175.525V38H163.525ZM179.675 38V36H191.675V38H179.675ZM195.825 38V36H207.825V38H195.825ZM211.975 38V36H223.975V38H211.975Z" fill="#E8E8E8"/>
<path d="M2.025 2V0H14.025V2H2.025ZM18.175 2V0H30.175V2H18.175ZM34.325 2V0H46.325V2H34.325ZM50.475 2V0H62.475V2H50.475ZM66.625 2V0H78.625V2H66.625ZM82.775 2V0H94.775V2H82.775ZM98.925 2V0H110.925V2H98.925ZM115.075 2V0H127.075V2H115.075ZM131.225 2V0H143.225V2H131.225ZM147.375 2V0H159.375V2H147.375ZM163.525 2V0H175.525V2H163.525ZM179.675 2V0H191.675V2H179.675ZM195.825 2V0H207.825V2H195.825ZM211.975 2V0H223.975V2H211.975ZM2.025 24V22H4.025V20H0.0250015V18H4.025V16H2.025V14H6.025V16H8.025V14H12.025V16H10.025V18H14.025V20H10.025V22H12.025V24H8.025V22H6.025V24H2.025ZM18.175 24V22H20.175V20H16.175V18H20.175V16H18.175V14H22.175V16H24.175V14H28.175V16H26.175V18H30.175V20H26.175V22H28.175V24H24.175V22H22.175V24H18.175ZM32.325 26V12H44.325V14H46.325V18H44.325V20H46.325V24H44.325V26H32.325ZM36.325 18H42.325V14H36.325V18ZM36.325 24H42.325V20H36.325V24ZM54.475 14V12H58.475V14H54.475ZM50.475 26V24H54.475V18H52.475V16H58.475V24H62.475V26H50.475ZM66.625 26V24H64.625V18H66.625V16H76.625V18H78.625V22H68.625V24H76.625V26H66.625ZM68.625 20H74.625V18H68.625V20ZM80.775 26V16H92.775V18H94.775V26H90.775V18H84.775V26H80.775ZM102.925 26V24H100.925V22H98.925V16H102.925V22H106.925V16H110.925V22H108.925V24H106.925V26H102.925ZM115.075 26V24H113.075V18H115.075V16H125.075V18H127.075V22H117.075V24H125.075V26H115.075ZM117.075 20H123.075V18H117.075V20ZM129.225 26V16H141.225V18H143.225V26H139.225V18H133.225V26H129.225ZM151.375 14V12H155.375V14H151.375ZM147.375 26V24H151.375V18H149.375V16H155.375V24H159.375V26H147.375ZM163.525 26V24H161.525V18H163.525V16H171.525V12H175.525V26H163.525ZM165.525 24H171.525V18H165.525V24ZM179.675 26V24H177.675V18H179.675V16H189.675V18H191.675V24H189.675V26H179.675ZM181.675 24H187.675V18H181.675V24ZM195.825 24V22H197.825V20H193.825V18H197.825V16H195.825V14H199.825V16H201.825V14H205.825V16H203.825V18H207.825V20H203.825V22H205.825V24H201.825V22H199.825V24H195.825ZM211.975 24V22H213.975V20H209.975V18H213.975V16H211.975V14H215.975V16H217.975V14H221.975V16H219.975V18H223.975V20H219.975V22H221.975V24H217.975V22H215.975V24H211.975ZM2.025 38V36H14.025V38H2.025ZM18.175 38V36H30.175V38H18.175ZM34.325 38V36H46.325V38H34.325ZM50.475 38V36H62.475V38H50.475ZM66.625 38V36H78.625V38H66.625ZM82.775 38V36H94.775V38H82.775ZM98.925 38V36H110.925V38H98.925ZM115.075 38V36H127.075V38H115.075ZM131.225 38V36H143.225V38H131.225ZM147.375 38V36H159.375V38H147.375ZM163.525 38V36H175.525V38H163.525ZM179.675 38V36H191.675V38H179.675ZM195.825 38V36H207.825V38H195.825ZM211.975 38V36H223.975V38H211.975Z" fill="black" fill-opacity="0.2"/>
</svg>
