<svg width="121" height="9" viewBox="0 0 121 9" fill="none" xmlns="http://www.w3.org/2000/svg">
<path d="M1.425 7.5V6.25H2.675V5H0.174999V3.75H2.675V2.5H1.425V1.25H3.925V2.5H5.175V1.25H7.675V2.5H6.425V3.75H8.925V5H6.425V6.25H7.675V7.5H5.175V6.25H3.925V7.5H1.425ZM11.575 7.5V6.25H12.825V5H10.325V3.75H12.825V2.5H11.575V1.25H14.075V2.5H15.325V1.25H17.825V2.5H16.575V3.75H19.075V5H16.575V6.25H17.825V7.5H15.325V6.25H14.075V7.5H11.575ZM31.875 8.75V7.5H30.625V6.25H33.125V7.5H36.875V5H31.875V3.75H30.625V1.25H31.875V0H38.125V1.25H39.375V2.5H36.875V1.25H33.125V3.75H38.125V5H39.375V7.5H38.125V8.75H31.875ZM42.025 8.75V7.5H40.775V6.25H42.025V5H47.025V3.75H42.025V2.5H48.275V3.75H49.525V8.75H42.025ZM43.275 7.5H47.025V6.25H43.275V7.5ZM52.175 8.75V7.5H54.675V1.25H53.425V0H57.175V7.5H59.675V8.75H52.175ZM64.825 8.75V3.75H62.325V2.5H64.825V0H67.325V2.5H69.825V3.75H67.325V8.75H64.825ZM72.475 8.75V7.5H71.225V6.25H72.475V5H77.475V3.75H72.475V2.5H78.725V3.75H79.975V8.75H72.475ZM73.725 7.5H77.475V6.25H73.725V7.5ZM85.125 3.75H86.375V5H85.125V8.75H82.625V2.5H85.125V3.75ZM90.125 2.5V3.75H86.375V2.5H90.125ZM102.925 7.5V6.25H104.175V5H101.675V3.75H104.175V2.5H102.925V1.25H105.425V2.5H106.675V1.25H109.175V2.5H107.925V3.75H110.425V5H107.925V6.25H109.175V7.5H106.675V6.25H105.425V7.5H102.925ZM113.075 7.5V6.25H114.325V5H111.825V3.75H114.325V2.5H113.075V1.25H115.575V2.5H116.825V1.25H119.325V2.5H118.075V3.75H120.575V5H118.075V6.25H119.325V7.5H116.825V6.25H115.575V7.5H113.075Z" fill="#898989"/>
</svg>
