<svg width="79" height="14" viewBox="0 0 79 14" fill="none" xmlns="http://www.w3.org/2000/svg">
<path d="M0.125 14V0H14.125V2H4.125V6H12.125V8H4.125V12H14.125V14H0.125ZM16.275 14V4H28.275V6H30.275V14H26.275V6H20.275V14H16.275ZM38.425 14V6H34.425V4H38.425V0H42.425V4H46.425V6H42.425V14H38.425ZM54.575 6H56.575V8H54.575V14H50.575V4H54.575V6ZM62.575 4V6H56.575V4H62.575ZM74.725 2H72.725V0H74.725V2ZM78.725 6V14H66.725V12H64.725V10H66.725V8H74.725V6H66.725V4H70.725V2H72.725V4H76.725V6H78.725ZM74.725 10H68.725V12H74.725V10Z" fill="#79574B"/>
</svg>
