<svg width="239" height="10" viewBox="0 0 239 10" fill="none" xmlns="http://www.w3.org/2000/svg">
<path d="M0.275002 8.75V0H9.025V1.25H2.775V3.75H7.775V5H2.775V7.5H9.025V8.75H0.275002ZM10.425 8.75V7.5H16.675V6.25H11.675V5H10.425V3.75H11.675V2.5H17.925V3.75H12.925V5H17.925V6.25H19.175V7.5H17.925V8.75H10.425ZM24.325 8.75V3.75H21.825V2.5H24.325V0H26.825V2.5H29.325V3.75H26.825V8.75H24.325ZM31.975 8.75V7.5H30.725V6.25H31.975V5H36.975V3.75H31.975V2.5H38.225V3.75H39.475V8.75H31.975ZM33.225 7.5H36.975V6.25H33.225V7.5ZM40.875 8.75V2.5H48.375V3.75H49.625V8.75H47.125V3.75H45.875V8.75H43.375V3.75H42.125V8.75H40.875ZM52.275 8.75V7.5H51.025V3.75H52.275V2.5H58.525V3.75H59.775V7.5H58.525V8.75H52.275ZM53.525 7.5H57.275V3.75H53.525V7.5ZM61.175 8.75V7.5H67.425V6.25H62.425V5H61.175V3.75H62.425V2.5H68.675V3.75H63.675V5H68.675V6.25H69.925V7.5H68.675V8.75H61.175ZM81.475 10V2.5H88.975V3.75H90.225V6.25H88.975V7.5H83.975V10H81.475ZM83.975 6.25H87.725V3.75H83.975V6.25ZM95.375 3.75H96.625V5H95.375V8.75H92.875V2.5H95.375V3.75ZM100.375 2.5V3.75H96.625V2.5H100.375ZM103.025 8.75V7.5H101.775V3.75H103.025V2.5H109.275V3.75H110.525V6.25H104.275V7.5H109.275V8.75H103.025ZM104.275 5H108.025V3.75H104.275V5ZM111.925 10V2.5H119.425V3.75H120.675V6.25H119.425V7.5H114.425V10H111.925ZM114.425 6.25H118.175V3.75H114.425V6.25ZM123.325 8.75V7.5H122.075V6.25H123.325V5H128.325V3.75H123.325V2.5H129.575V3.75H130.825V8.75H123.325ZM124.575 7.5H128.325V6.25H124.575V7.5ZM135.975 3.75H137.225V5H135.975V8.75H133.475V2.5H135.975V3.75ZM140.975 2.5V3.75H137.225V2.5H140.975ZM143.625 8.75V7.5H142.375V6.25H143.625V5H148.625V3.75H143.625V2.5H149.875V3.75H151.125V8.75H143.625ZM144.875 7.5H148.625V6.25H144.875V7.5ZM152.525 8.75V2.5H160.025V3.75H161.275V8.75H158.775V3.75H155.025V8.75H152.525ZM163.925 8.75V7.5H162.675V3.75H163.925V2.5H168.925V0H171.425V8.75H163.925ZM165.175 7.5H168.925V3.75H165.175V7.5ZM174.075 8.75V7.5H172.825V3.75H174.075V2.5H180.325V3.75H181.575V7.5H180.325V8.75H174.075ZM175.325 7.5H179.075V3.75H175.325V7.5ZM196.875 8.75V3.75H194.375V2.5H196.875V0H199.375V2.5H201.875V3.75H199.375V8.75H196.875ZM204.525 8.75V7.5H203.275V3.75H204.525V2.5H210.775V3.75H212.025V7.5H210.775V8.75H204.525ZM205.775 7.5H209.525V3.75H205.775V7.5ZM214.675 8.75V7.5H213.425V3.75H214.675V2.5H219.675V0H222.175V8.75H214.675ZM215.925 7.5H219.675V3.75H215.925V7.5ZM224.825 8.75V7.5H223.575V3.75H224.825V2.5H231.075V3.75H232.325V7.5H231.075V8.75H224.825ZM226.075 7.5H229.825V3.75H226.075V7.5ZM236.225 8.75V6.25H238.725V8.75H236.225Z" fill="#547811"/>
</svg>
