<svg width="212" height="215" viewBox="0 0 212 215" fill="none" xmlns="http://www.w3.org/2000/svg">
<rect x="10.3416" y="64.759" width="191.317" height="150.241" fill="#F6C286"/>
<rect y="75.1205" width="10.3415" height="134.492" fill="#B67947"/>
<rect x="1.34448" y="54.7084" width="9.10049" height="9.11807" fill="#B67947"/>
<rect x="10.4448" y="50.1494" width="9.10049" height="9.11807" fill="#B67947"/>
<rect x="19.5454" y="45.5903" width="9.10049" height="9.11807" fill="#B67947"/>
<rect x="28.6458" y="41.0313" width="9.10049" height="9.11807" fill="#B67947"/>
<rect x="37.7463" y="36.4723" width="9.10049" height="9.11807" fill="#B67947"/>
<rect x="46.8469" y="31.9133" width="9.10049" height="9.11807" fill="#B67947"/>
<rect x="55.9473" y="27.3542" width="9.10049" height="9.11807" fill="#B67947"/>
<rect x="65.0479" y="22.7952" width="9.10049" height="9.11807" fill="#B67947"/>
<rect x="74.1482" y="18.2361" width="9.10049" height="9.11807" fill="#B67947"/>
<rect x="83.2488" y="13.6771" width="9.10049" height="9.11807" fill="#B67947"/>
<rect x="92.3494" y="9.11804" width="9.10049" height="9.11807" fill="#B67947"/>
<rect x="101.45" width="9.10049" height="9.11807" fill="#3E3E3E"/>
<rect width="9.10049" height="9.11807" transform="matrix(-1 0 0 1 210.656 54.7084)" fill="#B67947"/>
<rect width="9.10048" height="9.11807" transform="matrix(-1 0 0 1 201.555 50.1494)" fill="#B67947"/>
<rect width="9.10048" height="9.11807" transform="matrix(-1 0 0 1 192.455 45.5903)" fill="#B67947"/>
<rect width="9.10049" height="9.11807" transform="matrix(-1 0 0 1 183.354 41.0313)" fill="#B67947"/>
<rect width="9.10049" height="9.11807" transform="matrix(-1 0 0 1 174.254 36.4723)" fill="#B67947"/>
<rect width="9.10049" height="9.11807" transform="matrix(-1 0 0 1 165.153 31.9133)" fill="#B67947"/>
<rect width="9.10049" height="9.11807" transform="matrix(-1 0 0 1 156.053 27.3542)" fill="#B67947"/>
<rect width="9.10048" height="9.11807" transform="matrix(-1 0 0 1 146.952 22.7952)" fill="#B67947"/>
<rect width="9.10048" height="9.11807" transform="matrix(-1 0 0 1 137.852 18.2361)" fill="#B67947"/>
<rect width="9.10049" height="9.11807" transform="matrix(-1 0 0 1 128.751 13.6771)" fill="#B67947"/>
<rect width="9.10049" height="9.11807" transform="matrix(-1 0 0 1 119.651 9.11804)" fill="#B67947"/>
<rect x="201.555" y="75.1205" width="10.3415" height="136.771" fill="#3E3E3E"/>
<rect x="201.555" y="64.759" width="10.3614" height="191.11" transform="rotate(90 201.555 64.759)" fill="#B67947"/>
<rect x="201.555" y="103.614" width="20.7229" height="191.11" transform="rotate(90 201.555 103.614)" fill="#DBAD78" style="mix-blend-mode:darken"/>
<rect x="201.555" y="98.4337" width="20.7229" height="191.11" transform="rotate(90 201.555 98.4337)" fill="#E8B274"/>
<rect x="201.555" y="163.193" width="20.7229" height="191.11" transform="rotate(90 201.555 163.193)" fill="#DBAD78"/>
<rect x="201.555" y="158.012" width="20.7229" height="191.11" transform="rotate(90 201.555 158.012)" fill="#E8B274"/>
<rect x="212" y="204.639" width="10.3615" height="212" transform="rotate(90 212 204.639)" fill="#3E3E3E"/>
<rect x="18.0977" y="82.8915" width="9.10049" height="9.11807" fill="#3E3E3E"/>
<rect x="186.146" y="82.8915" width="9.10048" height="9.11807" fill="#3E3E3E"/>
<rect x="18.0977" y="189.096" width="9.10049" height="9.11807" fill="#3E3E3E"/>
<rect x="186.146" y="189.096" width="9.10048" height="9.11807" fill="#3E3E3E"/>
</svg>
