<svg width="34" height="25" viewBox="0 0 34 25" fill="none" xmlns="http://www.w3.org/2000/svg">
<rect x="15.2905" width="0.804763" height="0.804763" fill="#3E3E3E"/>
<rect x="16.0952" width="0.804763" height="0.804763" fill="#3E3E3E"/>
<rect x="16.9" width="0.804763" height="0.804763" fill="#3E3E3E"/>
<rect x="17.7048" width="0.804763" height="0.804763" fill="#3E3E3E"/>
<rect x="18.5095" width="0.804763" height="0.804763" fill="#3E3E3E"/>
<rect x="18.5095" y="0.804733" width="0.804763" height="0.804763" fill="#3E3E3E"/>
<rect x="19.3143" y="0.804733" width="0.804763" height="0.804763" fill="#3E3E3E"/>
<rect x="19.3143" y="1.60954" width="0.804763" height="0.804763" fill="#3E3E3E"/>
<rect x="20.1191" y="1.60954" width="0.804763" height="0.804763" fill="#3E3E3E"/>
<rect x="20.1191" y="2.41426" width="0.804763" height="0.804763" fill="#3E3E3E"/>
<rect x="20.9238" y="2.41426" width="0.804763" height="0.804763" fill="#3E3E3E"/>
<rect x="20.9238" y="3.21909" width="0.804763" height="0.804763" fill="#3E3E3E"/>
<rect x="21.7286" y="3.21909" width="0.804763" height="0.804763" fill="#3E3E3E"/>
<rect x="22.5334" y="3.21909" width="0.804763" height="0.804763" fill="#3E3E3E"/>
<rect x="23.3381" y="3.21909" width="0.804763" height="0.804763" fill="#3E3E3E"/>
<rect x="23.3381" y="4.0238" width="0.804763" height="0.804763" fill="#3E3E3E"/>
<rect x="24.1429" y="4.0238" width="0.804763" height="0.804763" fill="#3E3E3E"/>
<rect x="24.1429" y="4.82855" width="0.804763" height="0.804763" fill="#3E3E3E"/>
<rect x="24.1429" y="5.63336" width="0.804763" height="0.804763" fill="#3E3E3E"/>
<rect x="24.1429" y="6.43808" width="0.804763" height="0.804763" fill="#3E3E3E"/>
<rect x="24.1429" y="7.24289" width="0.804763" height="0.804763" fill="#3E3E3E"/>
<rect x="24.9477" y="7.24289" width="0.804763" height="0.804763" fill="#3E3E3E"/>
<rect x="24.9477" y="8.04764" width="0.804763" height="0.804763" fill="#3E3E3E"/>
<rect x="24.9477" y="8.85236" width="0.804763" height="0.804763" fill="#3E3E3E"/>
<rect x="25.7524" y="8.85236" width="0.804763" height="0.804763" fill="#3E3E3E"/>
<rect x="26.5572" y="8.85236" width="0.804763" height="0.804763" fill="#3E3E3E"/>
<rect x="27.3619" y="8.85236" width="0.804763" height="0.804763" fill="#3E3E3E"/>
<rect x="27.3619" y="8.04764" width="0.804763" height="0.804763" fill="#3E3E3E"/>
<rect x="28.1667" y="8.04764" width="0.804763" height="0.804763" fill="#3E3E3E"/>
<rect x="28.9715" y="8.04764" width="0.804763" height="0.804763" fill="#3E3E3E"/>
<rect x="28.9715" y="8.85236" width="0.804763" height="0.804763" fill="#3E3E3E"/>
<rect x="28.9715" y="9.65718" width="0.804763" height="0.804763" fill="#3E3E3E"/>
<rect x="29.7762" y="9.65718" width="0.804763" height="0.804763" fill="#3E3E3E"/>
<rect x="29.7762" y="10.4619" width="0.804763" height="0.804763" fill="#3E3E3E"/>
<rect x="29.7762" y="11.2667" width="0.804763" height="0.804763" fill="#3E3E3E"/>
<rect x="30.581" y="11.2667" width="0.804763" height="0.804763" fill="#3E3E3E"/>
<rect x="31.3857" y="11.2667" width="0.804763" height="0.804763" fill="#3E3E3E"/>
<rect x="32.1905" y="11.2667" width="0.804763" height="0.804763" fill="#3E3E3E"/>
<rect x="32.1905" y="12.0714" width="0.804763" height="0.804763" fill="#3E3E3E"/>
<rect x="32.9953" y="12.0714" width="0.804763" height="0.804763" fill="#3E3E3E"/>
<rect x="32.9953" y="12.8762" width="0.804763" height="0.804763" fill="#3E3E3E"/>
<rect x="32.9953" y="13.681" width="0.804763" height="0.804763" fill="#3E3E3E"/>
<rect x="32.9953" y="14.4857" width="0.804763" height="0.804763" fill="#3E3E3E"/>
<rect x="32.1905" y="14.4857" width="0.804763" height="0.804763" fill="#3E3E3E"/>
<rect x="31.3857" y="14.4857" width="0.804763" height="0.804763" fill="#3E3E3E"/>
<rect x="31.3857" y="15.2905" width="0.804763" height="0.804763" fill="#3E3E3E"/>
<rect x="31.3857" y="16.0952" width="0.804763" height="0.804763" fill="#3E3E3E"/>
<rect x="30.581" y="16.0952" width="0.804763" height="0.804763" fill="#3E3E3E"/>
<rect x="30.581" y="16.9" width="0.804763" height="0.804763" fill="#3E3E3E"/>
<rect x="30.581" y="17.7048" width="0.804763" height="0.804763" fill="#3E3E3E"/>
<rect x="31.3857" y="17.7048" width="0.804763" height="0.804763" fill="#3E3E3E"/>
<rect x="32.1905" y="17.7048" width="0.804763" height="0.804763" fill="#3E3E3E"/>
<rect x="32.9953" y="18.5095" width="0.804763" height="0.804763" fill="#3E3E3E"/>
<rect x="32.1905" y="18.5095" width="0.804763" height="0.804763" fill="#3E3E3E"/>
<rect x="32.1905" y="19.3143" width="0.804763" height="0.804763" fill="#3E3E3E"/>
<rect x="32.1905" y="20.1191" width="0.804763" height="0.804763" fill="#3E3E3E"/>
<rect x="31.3857" y="20.1191" width="0.804763" height="0.804763" fill="#3E3E3E"/>
<rect x="30.581" y="20.1191" width="0.804763" height="0.804763" fill="#3E3E3E"/>
<rect x="30.581" y="20.9238" width="0.804763" height="0.804763" fill="#3E3E3E"/>
<rect x="29.7762" y="20.9238" width="0.804763" height="0.804763" fill="#3E3E3E"/>
<rect x="28.9715" y="20.9238" width="0.804763" height="0.804763" fill="#3E3E3E"/>
<rect x="28.9715" y="21.7286" width="0.804763" height="0.804763" fill="#3E3E3E"/>
<rect x="28.1667" y="21.7286" width="0.804763" height="0.804763" fill="#3E3E3E"/>
<rect x="28.1667" y="22.5333" width="0.804763" height="0.804763" fill="#3E3E3E"/>
<rect x="27.3619" y="22.5333" width="0.804763" height="0.804763" fill="#3E3E3E"/>
<rect x="26.5572" y="22.5333" width="0.804763" height="0.804763" fill="#3E3E3E"/>
<rect x="26.5572" y="21.7286" width="0.804763" height="0.804763" fill="#3E3E3E"/>
<rect x="25.7524" y="21.7286" width="0.804763" height="0.804763" fill="#3E3E3E"/>
<rect x="24.9477" y="21.7286" width="0.804763" height="0.804763" fill="#3E3E3E"/>
<rect x="24.1429" y="21.7286" width="0.804763" height="0.804763" fill="#3E3E3E"/>
<rect x="24.1429" y="22.5333" width="0.804763" height="0.804763" fill="#3E3E3E"/>
<rect x="23.3381" y="22.5333" width="0.804763" height="0.804763" fill="#3E3E3E"/>
<rect x="22.5334" y="22.5333" width="0.804763" height="0.804763" fill="#3E3E3E"/>
<rect x="22.5334" y="23.3382" width="0.804763" height="0.804763" fill="#3E3E3E"/>
<rect x="21.7286" y="23.3382" width="0.804763" height="0.804763" fill="#3E3E3E"/>
<rect x="20.9238" y="23.3382" width="0.804763" height="0.804763" fill="#3E3E3E"/>
<rect x="20.1191" y="23.3382" width="0.804763" height="0.804763" fill="#3E3E3E"/>
<rect x="19.3143" y="23.3382" width="0.804763" height="0.804763" fill="#3E3E3E"/>
<rect x="19.3143" y="22.5333" width="0.804763" height="0.804763" fill="#3E3E3E"/>
<rect x="18.5095" y="22.5333" width="0.804763" height="0.804763" fill="#3E3E3E"/>
<rect x="17.7048" y="22.5333" width="0.804763" height="0.804763" fill="#3E3E3E"/>
<rect x="17.7048" y="21.7286" width="0.804763" height="0.804763" fill="#3E3E3E"/>
<rect x="16.9" y="21.7286" width="0.804763" height="0.804763" fill="#3E3E3E"/>
<rect x="16.0952" y="21.7286" width="0.804763" height="0.804763" fill="#3E3E3E"/>
<rect x="15.2905" y="21.7286" width="0.804763" height="0.804763" fill="#3E3E3E"/>
<rect x="14.4857" y="21.7286" width="0.804763" height="0.804763" fill="#3E3E3E"/>
<rect x="14.4857" y="22.5333" width="0.804763" height="0.804763" fill="#3E3E3E"/>
<rect x="13.681" y="22.5333" width="0.804763" height="0.804763" fill="#3E3E3E"/>
<rect x="13.681" y="23.3382" width="0.804763" height="0.804763" fill="#3E3E3E"/>
<rect x="12.8762" y="23.3382" width="0.804763" height="0.804763" fill="#3E3E3E"/>
<rect x="12.0714" y="23.3382" width="0.804763" height="0.804763" fill="#3E3E3E"/>
<rect x="11.2667" y="23.3382" width="0.804763" height="0.804763" fill="#3E3E3E"/>
<rect x="11.2667" y="22.5333" width="0.804763" height="0.804763" fill="#3E3E3E"/>
<rect x="10.4619" y="22.5333" width="0.804763" height="0.804763" fill="#3E3E3E"/>
<rect x="9.65715" y="22.5333" width="0.804763" height="0.804763" fill="#3E3E3E"/>
<rect x="9.65715" y="21.7286" width="0.804763" height="0.804763" fill="#3E3E3E"/>
<rect x="8.8524" y="21.7286" width="0.804763" height="0.804763" fill="#3E3E3E"/>
<rect x="8.8524" y="20.9238" width="0.804763" height="0.804763" fill="#3E3E3E"/>
<rect x="8.04762" y="20.9238" width="0.804763" height="0.804763" fill="#3E3E3E"/>
<rect x="8.04762" y="20.1191" width="0.804763" height="0.804763" fill="#3E3E3E"/>
<rect x="7.24286" y="20.1191" width="0.804763" height="0.804763" fill="#3E3E3E"/>
<rect x="6.4381" y="20.1191" width="0.804763" height="0.804763" fill="#3E3E3E"/>
<rect x="5.63335" y="20.1191" width="0.804763" height="0.804763" fill="#3E3E3E"/>
<rect x="4.82858" y="20.1191" width="0.804763" height="0.804763" fill="#3E3E3E"/>
<rect x="4.82858" y="19.3143" width="0.804763" height="0.804763" fill="#3E3E3E"/>
<rect x="4.82858" y="18.5095" width="0.804763" height="0.804763" fill="#3E3E3E"/>
<rect x="4.02382" y="18.5095" width="0.804763" height="0.804763" fill="#3E3E3E"/>
<rect x="4.02382" y="17.7048" width="0.804763" height="0.804763" fill="#3E3E3E"/>
<rect x="3.21906" y="17.7048" width="0.804763" height="0.804763" fill="#3E3E3E"/>
<rect x="3.21906" y="16.9" width="0.804763" height="0.804763" fill="#3E3E3E"/>
<rect x="2.41429" y="16.9" width="0.804763" height="0.804763" fill="#3E3E3E"/>
<rect x="2.41429" y="16.0952" width="0.804763" height="0.804763" fill="#3E3E3E"/>
<rect x="1.60953" y="16.0952" width="0.804763" height="0.804763" fill="#3E3E3E"/>
<rect x="1.60953" y="15.2905" width="0.804763" height="0.804763" fill="#3E3E3E"/>
<rect x="0.804764" y="15.2905" width="0.804763" height="0.804763" fill="#3E3E3E"/>
<rect x="0.804764" y="14.4857" width="0.804763" height="0.804763" fill="#3E3E3E"/>
<rect y="14.4857" width="0.804763" height="0.804763" fill="#3E3E3E"/>
<rect y="13.681" width="0.804763" height="0.804763" fill="#3E3E3E"/>
<rect y="12.8762" width="0.804763" height="0.804763" fill="#3E3E3E"/>
<rect x="0.804764" y="12.8762" width="0.804763" height="0.804763" fill="#3E3E3E"/>
<rect x="1.60953" y="12.8762" width="0.804763" height="0.804763" fill="white"/>
<rect x="2.41429" y="12.8762" width="0.804763" height="0.804763" fill="white"/>
<rect x="3.21906" y="12.8762" width="0.804763" height="0.804763" fill="white"/>
<rect x="3.21906" y="11.2667" width="0.804763" height="0.804763" fill="white"/>
<rect x="4.02382" y="12.8762" width="0.804763" height="0.804763" fill="white"/>
<rect x="4.02382" y="15.2905" width="0.804763" height="0.804763" fill="white"/>
<rect x="4.02382" y="12.0714" width="0.804763" height="0.804763" fill="white"/>
<rect x="4.82858" y="12.8762" width="0.804763" height="0.804763" fill="white"/>
<rect x="4.82858" y="15.2905" width="0.804763" height="0.804763" fill="white"/>
<rect x="4.82858" y="12.0714" width="0.804763" height="0.804763" fill="white"/>
<rect x="5.63335" y="12.8762" width="0.804763" height="0.804763" fill="white"/>
<rect x="5.63335" y="9.65718" width="0.804763" height="0.804763" fill="white"/>
<rect x="5.63335" y="15.2905" width="0.804763" height="0.804763" fill="white"/>
<rect x="5.63335" y="17.7048" width="0.804763" height="0.804763" fill="white"/>
<rect x="5.63335" y="12.0714" width="0.804763" height="0.804763" fill="white"/>
<rect x="6.4381" y="12.8762" width="0.804763" height="0.804763" fill="white"/>
<rect x="6.4381" y="9.65718" width="0.804763" height="0.804763" fill="white"/>
<rect x="6.4381" y="8.85236" width="0.804763" height="0.804763" fill="white"/>
<rect x="6.4381" y="15.2905" width="0.804763" height="0.804763" fill="white"/>
<rect x="6.4381" y="17.7048" width="0.804763" height="0.804763" fill="#64CDEC"/>
<rect x="6.4381" y="12.0714" width="0.804763" height="0.804763" fill="white"/>
<rect x="7.24286" y="12.8762" width="0.804763" height="0.804763" fill="white"/>
<rect x="7.24286" y="9.65718" width="0.804763" height="0.804763" fill="white"/>
<rect x="7.24286" y="8.85236" width="0.804763" height="0.804763" fill="white"/>
<rect x="7.24286" y="15.2905" width="0.804763" height="0.804763" fill="white"/>
<rect x="7.24286" y="17.7048" width="0.804763" height="0.804763" fill="#64CDEC"/>
<rect x="7.24286" y="12.0714" width="0.804763" height="0.804763" fill="white"/>
<rect x="8.04762" y="12.8762" width="0.804763" height="0.804763" fill="white"/>
<rect x="8.04762" y="9.65718" width="0.804763" height="0.804763" fill="white"/>
<rect x="8.04762" y="8.85236" width="0.804763" height="0.804763" fill="white"/>
<rect x="8.04762" y="15.2905" width="0.804763" height="0.804763" fill="white"/>
<rect x="8.04762" y="17.7048" width="0.804763" height="0.804763" fill="#64CDEC"/>
<rect x="8.04762" y="12.0714" width="0.804763" height="0.804763" fill="white"/>
<rect x="8.8524" y="12.8762" width="0.804763" height="0.804763" fill="white"/>
<rect x="8.8524" y="9.65718" width="0.804763" height="0.804763" fill="white"/>
<rect x="8.8524" y="8.85236" width="0.804763" height="0.804763" fill="white"/>
<rect x="8.8524" y="15.2905" width="0.804763" height="0.804763" fill="white"/>
<rect x="8.8524" y="17.7048" width="0.804763" height="0.804763" fill="#64CDEC"/>
<rect x="8.8524" y="12.0714" width="0.804763" height="0.804763" fill="white"/>
<rect x="9.65715" y="12.8762" width="0.804763" height="0.804763" fill="white"/>
<rect x="9.65715" y="9.65718" width="0.804763" height="0.804763" fill="white"/>
<rect x="9.65715" y="8.85236" width="0.804763" height="0.804763" fill="white"/>
<rect x="9.65715" y="15.2905" width="0.804763" height="0.804763" fill="white"/>
<rect x="9.65715" y="17.7048" width="0.804763" height="0.804763" fill="#64CDEC"/>
<rect x="9.65715" y="12.0714" width="0.804763" height="0.804763" fill="white"/>
<rect x="10.4619" y="12.8762" width="0.804763" height="0.804763" fill="white"/>
<rect x="10.4619" y="9.65718" width="0.804763" height="0.804763" fill="white"/>
<rect x="10.4619" y="8.85236" width="0.804763" height="0.804763" fill="white"/>
<rect x="10.4619" y="15.2905" width="0.804763" height="0.804763" fill="white"/>
<rect x="10.4619" y="17.7048" width="0.804763" height="0.804763" fill="#64CDEC"/>
<rect x="10.4619" y="12.0714" width="0.804763" height="0.804763" fill="white"/>
<rect x="11.2667" y="12.8762" width="0.804763" height="0.804763" fill="white"/>
<rect x="11.2667" y="7.24289" width="0.804763" height="0.804763" fill="white"/>
<rect x="11.2667" y="9.65718" width="0.804763" height="0.804763" fill="white"/>
<rect x="11.2667" y="15.2905" width="0.804763" height="0.804763" fill="white"/>
<rect x="11.2667" y="17.7048" width="0.804763" height="0.804763" fill="white"/>
<rect x="11.2667" y="12.0714" width="0.804763" height="0.804763" fill="white"/>
<rect x="11.2667" y="6.43808" width="0.804763" height="0.804763" fill="white"/>
<rect x="12.0714" y="12.8762" width="0.804763" height="0.804763" fill="white"/>
<rect x="12.0714" y="7.24289" width="0.804763" height="0.804763" fill="white"/>
<rect x="12.0714" y="9.65718" width="0.804763" height="0.804763" fill="white"/>
<rect x="12.0714" y="4.0238" width="0.804763" height="0.804763" fill="white"/>
<rect x="12.0714" y="15.2905" width="0.804763" height="0.804763" fill="white"/>
<rect x="12.0714" y="17.7048" width="0.804763" height="0.804763" fill="white"/>
<rect x="12.0714" y="12.0714" width="0.804763" height="0.804763" fill="white"/>
<rect x="12.0714" y="6.43808" width="0.804763" height="0.804763" fill="white"/>
<rect x="12.8762" y="12.8762" width="0.804763" height="0.804763" fill="white"/>
<rect x="12.8762" y="7.24289" width="0.804763" height="0.804763" fill="white"/>
<rect x="9.65715" y="7.24289" width="0.804763" height="0.804763" fill="white"/>
<rect x="12.8762" y="9.65718" width="0.804763" height="0.804763" fill="white"/>
<rect x="12.8762" y="4.0238" width="0.804763" height="0.804763" fill="white"/>
<rect x="12.8762" y="15.2905" width="0.804763" height="0.804763" fill="white"/>
<rect x="12.8762" y="17.7048" width="0.804763" height="0.804763" fill="white"/>
<rect x="12.8762" y="12.0714" width="0.804763" height="0.804763" fill="white"/>
<rect x="12.8762" y="6.43808" width="0.804763" height="0.804763" fill="white"/>
<rect x="13.681" y="12.8762" width="0.804763" height="0.804763" fill="white"/>
<rect x="13.681" y="7.24289" width="0.804763" height="0.804763" fill="white"/>
<rect x="10.4619" y="7.24289" width="0.804763" height="0.804763" fill="white"/>
<rect x="13.681" y="9.65718" width="0.804763" height="0.804763" fill="white"/>
<rect x="13.681" y="4.0238" width="0.804763" height="0.804763" fill="white"/>
<rect x="13.681" y="15.2905" width="0.804763" height="0.804763" fill="white"/>
<rect x="13.681" y="17.7048" width="0.804763" height="0.804763" fill="white"/>
<rect x="13.681" y="12.0714" width="0.804763" height="0.804763" fill="white"/>
<rect x="13.681" y="6.43808" width="0.804763" height="0.804763" fill="#64CDEC"/>
<rect x="10.4619" y="6.43808" width="0.804763" height="0.804763" fill="white"/>
<rect x="14.4857" y="12.8762" width="0.804763" height="0.804763" fill="white"/>
<rect x="14.4857" y="7.24289" width="0.804763" height="0.804763" fill="white"/>
<rect x="14.4857" y="9.65718" width="0.804763" height="0.804763" fill="white"/>
<rect x="14.4857" y="4.0238" width="0.804763" height="0.804763" fill="white"/>
<rect x="14.4857" y="15.2905" width="0.804763" height="0.804763" fill="white"/>
<rect x="14.4857" y="17.7048" width="0.804763" height="0.804763" fill="white"/>
<rect x="14.4857" y="12.0714" width="0.804763" height="0.804763" fill="white"/>
<rect x="14.4857" y="6.43808" width="0.804763" height="0.804763" fill="#64CDEC"/>
<rect x="15.2905" y="12.8762" width="0.804763" height="0.804763" fill="white"/>
<rect x="15.2905" y="7.24289" width="0.804763" height="0.804763" fill="white"/>
<rect x="15.2905" y="9.65718" width="0.804763" height="0.804763" fill="white"/>
<rect x="15.2905" y="4.0238" width="0.804763" height="0.804763" fill="white"/>
<rect x="15.2905" y="1.60954" width="0.804763" height="0.804763" fill="white"/>
<rect x="15.2905" y="0.804733" width="0.804763" height="0.804763" fill="white"/>
<rect x="15.2905" y="15.2905" width="0.804763" height="0.804763" fill="white"/>
<rect x="15.2905" y="17.7048" width="0.804763" height="0.804763" fill="#64CDEC"/>
<rect x="15.2905" y="12.0714" width="0.804763" height="0.804763" fill="white"/>
<rect x="15.2905" y="6.43808" width="0.804763" height="0.804763" fill="white"/>
<rect x="16.0952" y="12.8762" width="0.804763" height="0.804763" fill="white"/>
<rect x="16.0952" y="7.24289" width="0.804763" height="0.804763" fill="white"/>
<rect x="16.0952" y="9.65718" width="0.804763" height="0.804763" fill="white"/>
<rect x="16.0952" y="4.0238" width="0.804763" height="0.804763" fill="white"/>
<rect x="16.0952" y="1.60954" width="0.804763" height="0.804763" fill="white"/>
<rect x="18.5095" y="1.60954" width="0.804763" height="0.804763" fill="white"/>
<rect x="16.0952" y="0.804733" width="0.804763" height="0.804763" fill="white"/>
<rect x="16.0952" y="15.2905" width="0.804763" height="0.804763" fill="white"/>
<rect x="16.0952" y="17.7048" width="0.804763" height="0.804763" fill="#64CDEC"/>
<rect x="16.0952" y="12.0714" width="0.804763" height="0.804763" fill="white"/>
<rect x="16.0952" y="6.43808" width="0.804763" height="0.804763" fill="white"/>
<rect x="16.9" y="12.8762" width="0.804763" height="0.804763" fill="white"/>
<rect x="16.9" y="7.24289" width="0.804763" height="0.804763" fill="white"/>
<rect x="16.9" y="9.65718" width="0.804763" height="0.804763" fill="white"/>
<rect x="16.9" y="4.0238" width="0.804763" height="0.804763" fill="white"/>
<rect x="16.9" y="1.60954" width="0.804763" height="0.804763" fill="white"/>
<rect x="16.9" y="0.804733" width="0.804763" height="0.804763" fill="white"/>
<rect x="16.9" y="15.2905" width="0.804763" height="0.804763" fill="white"/>
<rect x="16.9" y="17.7048" width="0.804763" height="0.804763" fill="#64CDEC"/>
<rect x="16.9" y="12.0714" width="0.804763" height="0.804763" fill="white"/>
<rect x="16.9" y="6.43808" width="0.804763" height="0.804763" fill="white"/>
<rect x="17.7048" y="12.8762" width="0.804763" height="0.804763" fill="white"/>
<rect x="17.7048" y="7.24289" width="0.804763" height="0.804763" fill="white"/>
<rect x="17.7048" y="9.65718" width="0.804763" height="0.804763" fill="white"/>
<rect x="17.7048" y="4.0238" width="0.804763" height="0.804763" fill="white"/>
<rect x="17.7048" y="1.60954" width="0.804763" height="0.804763" fill="white"/>
<rect x="14.4857" y="1.60954" width="0.804763" height="0.804763" fill="white"/>
<rect x="17.7048" y="0.804733" width="0.804763" height="0.804763" fill="white"/>
<rect x="17.7048" y="15.2905" width="0.804763" height="0.804763" fill="white"/>
<rect x="17.7048" y="17.7048" width="0.804763" height="0.804763" fill="white"/>
<rect x="17.7048" y="12.0714" width="0.804763" height="0.804763" fill="white"/>
<rect x="17.7048" y="6.43808" width="0.804763" height="0.804763" fill="white"/>
<rect x="18.5095" y="12.8762" width="0.804763" height="0.804763" fill="white"/>
<rect x="18.5095" y="7.24289" width="0.804763" height="0.804763" fill="white"/>
<rect x="18.5095" y="9.65718" width="0.804763" height="0.804763" fill="white"/>
<rect x="18.5095" y="4.0238" width="0.804763" height="0.804763" fill="white"/>
<rect x="18.5095" y="15.2905" width="0.804763" height="0.804763" fill="white"/>
<rect x="18.5095" y="17.7048" width="0.804763" height="0.804763" fill="white"/>
<rect x="18.5095" y="12.0714" width="0.804763" height="0.804763" fill="white"/>
<rect x="18.5095" y="6.43808" width="0.804763" height="0.804763" fill="white"/>
<rect x="19.3143" y="12.8762" width="0.804763" height="0.804763" fill="white"/>
<rect x="19.3143" y="7.24289" width="0.804763" height="0.804763" fill="white"/>
<rect x="19.3143" y="9.65718" width="0.804763" height="0.804763" fill="white"/>
<rect x="19.3143" y="4.0238" width="0.804763" height="0.804763" fill="white"/>
<rect x="19.3143" y="15.2905" width="0.804763" height="0.804763" fill="white"/>
<rect x="19.3143" y="17.7048" width="0.804763" height="0.804763" fill="white"/>
<rect x="19.3143" y="12.0714" width="0.804763" height="0.804763" fill="white"/>
<rect x="19.3143" y="6.43808" width="0.804763" height="0.804763" fill="white"/>
<rect x="20.1191" y="12.8762" width="0.804763" height="0.804763" fill="white"/>
<rect x="20.1191" y="7.24289" width="0.804763" height="0.804763" fill="white"/>
<rect x="20.1191" y="9.65718" width="0.804763" height="0.804763" fill="white"/>
<rect x="20.1191" y="4.0238" width="0.804763" height="0.804763" fill="white"/>
<rect x="20.1191" y="15.2905" width="0.804763" height="0.804763" fill="white"/>
<rect x="20.1191" y="17.7048" width="0.804763" height="0.804763" fill="white"/>
<rect x="20.1191" y="12.0714" width="0.804763" height="0.804763" fill="white"/>
<rect x="20.1191" y="6.43808" width="0.804763" height="0.804763" fill="white"/>
<rect x="20.9238" y="12.8762" width="0.804763" height="0.804763" fill="white"/>
<rect x="20.9238" y="7.24289" width="0.804763" height="0.804763" fill="white"/>
<rect x="20.9238" y="9.65718" width="0.804763" height="0.804763" fill="white"/>
<rect x="20.9238" y="4.0238" width="0.804763" height="0.804763" fill="white"/>
<rect x="20.9238" y="15.2905" width="0.804763" height="0.804763" fill="white"/>
<rect x="20.9238" y="17.7048" width="0.804763" height="0.804763" fill="white"/>
<rect x="20.9238" y="12.0714" width="0.804763" height="0.804763" fill="white"/>
<rect x="20.9238" y="6.43808" width="0.804763" height="0.804763" fill="white"/>
<rect x="21.7286" y="12.8762" width="0.804763" height="0.804763" fill="white"/>
<rect x="21.7286" y="7.24289" width="0.804763" height="0.804763" fill="white"/>
<rect x="21.7286" y="9.65718" width="0.804763" height="0.804763" fill="white"/>
<rect x="21.7286" y="4.0238" width="0.804763" height="0.804763" fill="white"/>
<rect x="21.7286" y="15.2905" width="0.804763" height="0.804763" fill="white"/>
<rect x="21.7286" y="17.7048" width="0.804763" height="0.804763" fill="#64CDEC"/>
<rect x="21.7286" y="12.0714" width="0.804763" height="0.804763" fill="white"/>
<rect x="21.7286" y="6.43808" width="0.804763" height="0.804763" fill="white"/>
<rect x="22.5334" y="12.8762" width="0.804763" height="0.804763" fill="white"/>
<rect x="22.5334" y="7.24289" width="0.804763" height="0.804763" fill="white"/>
<rect x="22.5334" y="9.65718" width="0.804763" height="0.804763" fill="white"/>
<rect x="22.5334" y="4.0238" width="0.804763" height="0.804763" fill="white"/>
<rect x="22.5334" y="15.2905" width="0.804763" height="0.804763" fill="white"/>
<rect x="22.5334" y="17.7048" width="0.804763" height="0.804763" fill="white"/>
<rect x="22.5334" y="12.0714" width="0.804763" height="0.804763" fill="white"/>
<rect x="22.5334" y="6.43808" width="0.804763" height="0.804763" fill="white"/>
<rect x="23.3381" y="12.8762" width="0.804763" height="0.804763" fill="white"/>
<rect x="23.3381" y="7.24289" width="0.804763" height="0.804763" fill="white"/>
<rect x="23.3381" y="9.65718" width="0.804763" height="0.804763" fill="white"/>
<rect x="23.3381" y="15.2905" width="0.804763" height="0.804763" fill="white"/>
<rect x="23.3381" y="17.7048" width="0.804763" height="0.804763" fill="white"/>
<rect x="23.3381" y="12.0714" width="0.804763" height="0.804763" fill="white"/>
<rect x="23.3381" y="6.43808" width="0.804763" height="0.804763" fill="white"/>
<rect x="24.1429" y="12.8762" width="0.804763" height="0.804763" fill="white"/>
<rect x="24.1429" y="9.65718" width="0.804763" height="0.804763" fill="white"/>
<rect x="24.1429" y="15.2905" width="0.804763" height="0.804763" fill="white"/>
<rect x="24.1429" y="17.7048" width="0.804763" height="0.804763" fill="white"/>
<rect x="24.1429" y="12.0714" width="0.804763" height="0.804763" fill="white"/>
<rect x="24.9477" y="12.8762" width="0.804763" height="0.804763" fill="white"/>
<rect x="24.9477" y="9.65718" width="0.804763" height="0.804763" fill="white"/>
<rect x="24.9477" y="15.2905" width="0.804763" height="0.804763" fill="white"/>
<rect x="24.9477" y="17.7048" width="0.804763" height="0.804763" fill="white"/>
<rect x="24.9477" y="12.0714" width="0.804763" height="0.804763" fill="white"/>
<rect x="25.7524" y="12.8762" width="0.804763" height="0.804763" fill="white"/>
<rect x="25.7524" y="9.65718" width="0.804763" height="0.804763" fill="white"/>
<rect x="25.7524" y="15.2905" width="0.804763" height="0.804763" fill="white"/>
<rect x="25.7524" y="17.7048" width="0.804763" height="0.804763" fill="white"/>
<rect x="25.7524" y="12.0714" width="0.804763" height="0.804763" fill="white"/>
<rect x="26.5572" y="12.8762" width="0.804763" height="0.804763" fill="white"/>
<rect x="26.5572" y="9.65718" width="0.804763" height="0.804763" fill="white"/>
<rect x="26.5572" y="15.2905" width="0.804763" height="0.804763" fill="white"/>
<rect x="26.5572" y="17.7048" width="0.804763" height="0.804763" fill="white"/>
<rect x="26.5572" y="12.0714" width="0.804763" height="0.804763" fill="white"/>
<rect x="27.3619" y="12.8762" width="0.804763" height="0.804763" fill="white"/>
<rect x="27.3619" y="9.65718" width="0.804763" height="0.804763" fill="white"/>
<rect x="27.3619" y="15.2905" width="0.804763" height="0.804763" fill="white"/>
<rect x="27.3619" y="17.7048" width="0.804763" height="0.804763" fill="white"/>
<rect x="27.3619" y="12.0714" width="0.804763" height="0.804763" fill="white"/>
<rect x="28.1667" y="12.8762" width="0.804763" height="0.804763" fill="white"/>
<rect x="28.1667" y="9.65718" width="0.804763" height="0.804763" fill="white"/>
<rect x="28.1667" y="8.85236" width="0.804763" height="0.804763" fill="white"/>
<rect x="28.1667" y="15.2905" width="0.804763" height="0.804763" fill="white"/>
<rect x="28.1667" y="17.7048" width="0.804763" height="0.804763" fill="white"/>
<rect x="28.1667" y="12.0714" width="0.804763" height="0.804763" fill="white"/>
<rect x="28.9715" y="12.8762" width="0.804763" height="0.804763" fill="white"/>
<rect x="28.9715" y="15.2905" width="0.804763" height="0.804763" fill="white"/>
<rect x="28.9715" y="17.7048" width="0.804763" height="0.804763" fill="white"/>
<rect x="28.9715" y="12.0714" width="0.804763" height="0.804763" fill="white"/>
<rect x="29.7762" y="12.8762" width="0.804763" height="0.804763" fill="white"/>
<rect x="29.7762" y="16.0952" width="0.804763" height="0.804763" fill="white"/>
<rect x="29.7762" y="12.0714" width="0.804763" height="0.804763" fill="white"/>
<rect x="30.581" y="12.8762" width="0.804763" height="0.804763" fill="white"/>
<rect x="30.581" y="12.0714" width="0.804763" height="0.804763" fill="white"/>
<rect x="31.3857" y="12.8762" width="0.804763" height="0.804763" fill="white"/>
<rect x="31.3857" y="12.0714" width="0.804763" height="0.804763" fill="white"/>
<rect x="32.1905" y="12.8762" width="0.804763" height="0.804763" fill="white"/>
<rect x="1.60953" y="13.681" width="0.804763" height="0.804763" fill="white"/>
<rect x="0.804764" y="13.681" width="0.804763" height="0.804763" fill="white"/>
<rect x="2.41429" y="13.681" width="0.804763" height="0.804763" fill="white"/>
<rect x="2.41429" y="15.2905" width="0.804763" height="0.804763" fill="white"/>
<rect x="3.21906" y="13.681" width="0.804763" height="0.804763" fill="white"/>
<rect x="3.21906" y="12.0714" width="0.804763" height="0.804763" fill="white"/>
<rect x="3.21906" y="15.2905" width="0.804763" height="0.804763" fill="white"/>
<rect x="4.02382" y="13.681" width="0.804763" height="0.804763" fill="white"/>
<rect x="4.02382" y="10.4619" width="0.804763" height="0.804763" fill="white"/>
<rect x="4.02382" y="16.0952" width="0.804763" height="0.804763" fill="white"/>
<rect x="4.82858" y="13.681" width="0.804763" height="0.804763" fill="white"/>
<rect x="4.82858" y="10.4619" width="0.804763" height="0.804763" fill="white"/>
<rect x="4.82858" y="16.0952" width="0.804763" height="0.804763" fill="#64CDEC"/>
<rect x="5.63335" y="13.681" width="0.804763" height="0.804763" fill="white"/>
<rect x="5.63335" y="10.4619" width="0.804763" height="0.804763" fill="white"/>
<rect x="5.63335" y="16.0952" width="0.804763" height="0.804763" fill="#64CDEC"/>
<rect x="5.63335" y="18.5095" width="0.804763" height="0.804763" fill="white"/>
<rect x="6.4381" y="13.681" width="0.804763" height="0.804763" fill="white"/>
<rect x="6.4381" y="10.4619" width="0.804763" height="0.804763" fill="white"/>
<rect x="6.4381" y="16.0952" width="0.804763" height="0.804763" fill="white"/>
<rect x="6.4381" y="18.5095" width="0.804763" height="0.804763" fill="white"/>
<rect x="7.24286" y="13.681" width="0.804763" height="0.804763" fill="white"/>
<rect x="7.24286" y="10.4619" width="0.804763" height="0.804763" fill="white"/>
<rect x="7.24286" y="16.0952" width="0.804763" height="0.804763" fill="white"/>
<rect x="7.24286" y="18.5095" width="0.804763" height="0.804763" fill="white"/>
<rect x="8.04762" y="13.681" width="0.804763" height="0.804763" fill="white"/>
<rect x="8.04762" y="10.4619" width="0.804763" height="0.804763" fill="white"/>
<rect x="8.04762" y="16.0952" width="0.804763" height="0.804763" fill="white"/>
<rect x="8.04762" y="18.5095" width="0.804763" height="0.804763" fill="white"/>
<rect x="8.8524" y="13.681" width="0.804763" height="0.804763" fill="white"/>
<rect x="8.8524" y="10.4619" width="0.804763" height="0.804763" fill="white"/>
<rect x="8.8524" y="16.0952" width="0.804763" height="0.804763" fill="white"/>
<rect x="8.8524" y="18.5095" width="0.804763" height="0.804763" fill="white"/>
<rect x="9.65715" y="13.681" width="0.804763" height="0.804763" fill="white"/>
<rect x="9.65715" y="10.4619" width="0.804763" height="0.804763" fill="white"/>
<rect x="9.65715" y="16.0952" width="0.804763" height="0.804763" fill="white"/>
<rect x="9.65715" y="18.5095" width="0.804763" height="0.804763" fill="white"/>
<rect x="9.65715" y="20.1191" width="0.804763" height="0.804763" fill="white"/>
<rect x="8.8524" y="20.1191" width="0.804763" height="0.804763" fill="white"/>
<rect x="10.4619" y="13.681" width="0.804763" height="0.804763" fill="white"/>
<rect x="10.4619" y="10.4619" width="0.804763" height="0.804763" fill="white"/>
<rect x="10.4619" y="16.0952" width="0.804763" height="0.804763" fill="white"/>
<rect x="10.4619" y="18.5095" width="0.804763" height="0.804763" fill="#64CDEC"/>
<rect x="10.4619" y="20.1191" width="0.804763" height="0.804763" fill="white"/>
<rect x="10.4619" y="21.7286" width="0.804763" height="0.804763" fill="white"/>
<rect x="11.2667" y="13.681" width="0.804763" height="0.804763" fill="white"/>
<rect x="11.2667" y="8.04764" width="0.804763" height="0.804763" fill="white"/>
<rect x="11.2667" y="10.4619" width="0.804763" height="0.804763" fill="white"/>
<rect x="11.2667" y="4.82855" width="0.804763" height="0.804763" fill="white"/>
<rect x="11.2667" y="16.0952" width="0.804763" height="0.804763" fill="white"/>
<rect x="11.2667" y="18.5095" width="0.804763" height="0.804763" fill="#64CDEC"/>
<rect x="11.2667" y="20.1191" width="0.804763" height="0.804763" fill="white"/>
<rect x="11.2667" y="21.7286" width="0.804763" height="0.804763" fill="white"/>
<rect x="12.0714" y="13.681" width="0.804763" height="0.804763" fill="white"/>
<rect x="12.0714" y="8.04764" width="0.804763" height="0.804763" fill="white"/>
<rect x="8.8524" y="8.04764" width="0.804763" height="0.804763" fill="white"/>
<rect x="12.0714" y="10.4619" width="0.804763" height="0.804763" fill="white"/>
<rect x="12.0714" y="4.82855" width="0.804763" height="0.804763" fill="white"/>
<rect x="12.0714" y="16.0952" width="0.804763" height="0.804763" fill="white"/>
<rect x="12.0714" y="18.5095" width="0.804763" height="0.804763" fill="#64CDEC"/>
<rect x="12.0714" y="20.1191" width="0.804763" height="0.804763" fill="white"/>
<rect x="12.0714" y="21.7286" width="0.804763" height="0.804763" fill="white"/>
<rect x="12.8762" y="13.681" width="0.804763" height="0.804763" fill="white"/>
<rect x="12.8762" y="8.04764" width="0.804763" height="0.804763" fill="white"/>
<rect x="9.65715" y="8.04764" width="0.804763" height="0.804763" fill="white"/>
<rect x="12.8762" y="10.4619" width="0.804763" height="0.804763" fill="white"/>
<rect x="12.8762" y="4.82855" width="0.804763" height="0.804763" fill="white"/>
<rect x="12.8762" y="16.0952" width="0.804763" height="0.804763" fill="white"/>
<rect x="12.8762" y="18.5095" width="0.804763" height="0.804763" fill="#64CDEC"/>
<rect x="12.8762" y="20.1191" width="0.804763" height="0.804763" fill="#64CDEC"/>
<rect x="12.8762" y="21.7286" width="0.804763" height="0.804763" fill="white"/>
<rect x="13.681" y="13.681" width="0.804763" height="0.804763" fill="white"/>
<rect x="13.681" y="8.04764" width="0.804763" height="0.804763" fill="white"/>
<rect x="10.4619" y="8.04764" width="0.804763" height="0.804763" fill="white"/>
<rect x="13.681" y="10.4619" width="0.804763" height="0.804763" fill="white"/>
<rect x="13.681" y="4.82855" width="0.804763" height="0.804763" fill="white"/>
<rect x="13.681" y="16.0952" width="0.804763" height="0.804763" fill="white"/>
<rect x="13.681" y="18.5095" width="0.804763" height="0.804763" fill="#64CDEC"/>
<rect x="13.681" y="20.1191" width="0.804763" height="0.804763" fill="white"/>
<rect x="13.681" y="21.7286" width="0.804763" height="0.804763" fill="white"/>
<rect x="14.4857" y="13.681" width="0.804763" height="0.804763" fill="white"/>
<rect x="14.4857" y="8.04764" width="0.804763" height="0.804763" fill="white"/>
<rect x="14.4857" y="10.4619" width="0.804763" height="0.804763" fill="white"/>
<rect x="14.4857" y="4.82855" width="0.804763" height="0.804763" fill="white"/>
<rect x="14.4857" y="16.0952" width="0.804763" height="0.804763" fill="white"/>
<rect x="14.4857" y="18.5095" width="0.804763" height="0.804763" fill="#64CDEC"/>
<rect x="14.4857" y="20.1191" width="0.804763" height="0.804763" fill="white"/>
<rect x="15.2905" y="13.681" width="0.804763" height="0.804763" fill="white"/>
<rect x="15.2905" y="8.04764" width="0.804763" height="0.804763" fill="white"/>
<rect x="15.2905" y="10.4619" width="0.804763" height="0.804763" fill="white"/>
<rect x="15.2905" y="4.82855" width="0.804763" height="0.804763" fill="white"/>
<rect x="15.2905" y="2.41426" width="0.804763" height="0.804763" fill="white"/>
<rect x="15.2905" y="16.0952" width="0.804763" height="0.804763" fill="white"/>
<rect x="15.2905" y="18.5095" width="0.804763" height="0.804763" fill="#64CDEC"/>
<rect x="15.2905" y="20.1191" width="0.804763" height="0.804763" fill="white"/>
<rect x="16.0952" y="13.681" width="0.804763" height="0.804763" fill="white"/>
<rect x="16.0952" y="8.04764" width="0.804763" height="0.804763" fill="white"/>
<rect x="16.0952" y="10.4619" width="0.804763" height="0.804763" fill="white"/>
<rect x="16.0952" y="4.82855" width="0.804763" height="0.804763" fill="white"/>
<rect x="16.0952" y="2.41426" width="0.804763" height="0.804763" fill="white"/>
<rect x="18.5095" y="2.41426" width="0.804763" height="0.804763" fill="white"/>
<rect x="16.0952" y="16.0952" width="0.804763" height="0.804763" fill="white"/>
<rect x="16.0952" y="18.5095" width="0.804763" height="0.804763" fill="white"/>
<rect x="16.0952" y="20.1191" width="0.804763" height="0.804763" fill="white"/>
<rect x="16.9" y="13.681" width="0.804763" height="0.804763" fill="white"/>
<rect x="16.9" y="8.04764" width="0.804763" height="0.804763" fill="white"/>
<rect x="16.9" y="10.4619" width="0.804763" height="0.804763" fill="white"/>
<rect x="16.9" y="4.82855" width="0.804763" height="0.804763" fill="white"/>
<rect x="16.9" y="2.41426" width="0.804763" height="0.804763" fill="white"/>
<rect x="13.681" y="2.41426" width="0.804763" height="0.804763" fill="white"/>
<rect x="19.3143" y="2.41426" width="0.804763" height="0.804763" fill="white"/>
<rect x="16.9" y="16.0952" width="0.804763" height="0.804763" fill="#64CDEC"/>
<rect x="16.9" y="18.5095" width="0.804763" height="0.804763" fill="white"/>
<rect x="16.9" y="20.1191" width="0.804763" height="0.804763" fill="white"/>
<rect x="17.7048" y="13.681" width="0.804763" height="0.804763" fill="white"/>
<rect x="17.7048" y="8.04764" width="0.804763" height="0.804763" fill="white"/>
<rect x="17.7048" y="10.4619" width="0.804763" height="0.804763" fill="white"/>
<rect x="17.7048" y="4.82855" width="0.804763" height="0.804763" fill="white"/>
<rect x="17.7048" y="2.41426" width="0.804763" height="0.804763" fill="white"/>
<rect x="14.4857" y="2.41426" width="0.804763" height="0.804763" fill="white"/>
<rect x="17.7048" y="16.0952" width="0.804763" height="0.804763" fill="#64CDEC"/>
<rect x="17.7048" y="18.5095" width="0.804763" height="0.804763" fill="#64CDEC"/>
<rect x="17.7048" y="20.1191" width="0.804763" height="0.804763" fill="white"/>
<rect x="18.5095" y="13.681" width="0.804763" height="0.804763" fill="white"/>
<rect x="18.5095" y="8.04764" width="0.804763" height="0.804763" fill="white"/>
<rect x="18.5095" y="10.4619" width="0.804763" height="0.804763" fill="white"/>
<rect x="18.5095" y="4.82855" width="0.804763" height="0.804763" fill="white"/>
<rect x="18.5095" y="16.0952" width="0.804763" height="0.804763" fill="white"/>
<rect x="18.5095" y="18.5095" width="0.804763" height="0.804763" fill="#64CDEC"/>
<rect x="18.5095" y="20.1191" width="0.804763" height="0.804763" fill="white"/>
<rect x="18.5095" y="21.7286" width="0.804763" height="0.804763" fill="white"/>
<rect x="19.3143" y="13.681" width="0.804763" height="0.804763" fill="white"/>
<rect x="19.3143" y="8.04764" width="0.804763" height="0.804763" fill="white"/>
<rect x="19.3143" y="10.4619" width="0.804763" height="0.804763" fill="white"/>
<rect x="19.3143" y="4.82855" width="0.804763" height="0.804763" fill="#64CDEC"/>
<rect x="19.3143" y="16.0952" width="0.804763" height="0.804763" fill="white"/>
<rect x="19.3143" y="18.5095" width="0.804763" height="0.804763" fill="#64CDEC"/>
<rect x="19.3143" y="20.1191" width="0.804763" height="0.804763" fill="white"/>
<rect x="19.3143" y="21.7286" width="0.804763" height="0.804763" fill="white"/>
<rect x="20.1191" y="13.681" width="0.804763" height="0.804763" fill="white"/>
<rect x="20.1191" y="8.04764" width="0.804763" height="0.804763" fill="white"/>
<rect x="20.1191" y="10.4619" width="0.804763" height="0.804763" fill="white"/>
<rect x="20.1191" y="4.82855" width="0.804763" height="0.804763" fill="#64CDEC"/>
<rect x="20.1191" y="16.0952" width="0.804763" height="0.804763" fill="white"/>
<rect x="20.1191" y="18.5095" width="0.804763" height="0.804763" fill="#64CDEC"/>
<rect x="20.1191" y="20.1191" width="0.804763" height="0.804763" fill="white"/>
<rect x="20.1191" y="21.7286" width="0.804763" height="0.804763" fill="white"/>
<rect x="20.9238" y="13.681" width="0.804763" height="0.804763" fill="white"/>
<rect x="20.9238" y="8.04764" width="0.804763" height="0.804763" fill="white"/>
<rect x="20.9238" y="10.4619" width="0.804763" height="0.804763" fill="white"/>
<rect x="20.9238" y="4.82855" width="0.804763" height="0.804763" fill="white"/>
<rect x="20.9238" y="16.0952" width="0.804763" height="0.804763" fill="white"/>
<rect x="20.9238" y="18.5095" width="0.804763" height="0.804763" fill="#64CDEC"/>
<rect x="20.9238" y="20.1191" width="0.804763" height="0.804763" fill="white"/>
<rect x="20.9238" y="21.7286" width="0.804763" height="0.804763" fill="white"/>
<rect x="21.7286" y="13.681" width="0.804763" height="0.804763" fill="#64CDEC"/>
<rect x="21.7286" y="8.04764" width="0.804763" height="0.804763" fill="white"/>
<rect x="21.7286" y="10.4619" width="0.804763" height="0.804763" fill="white"/>
<rect x="21.7286" y="4.82855" width="0.804763" height="0.804763" fill="white"/>
<rect x="21.7286" y="16.0952" width="0.804763" height="0.804763" fill="white"/>
<rect x="21.7286" y="18.5095" width="0.804763" height="0.804763" fill="white"/>
<rect x="21.7286" y="20.1191" width="0.804763" height="0.804763" fill="white"/>
<rect x="21.7286" y="21.7286" width="0.804763" height="0.804763" fill="white"/>
<rect x="22.5334" y="13.681" width="0.804763" height="0.804763" fill="white"/>
<rect x="22.5334" y="8.04764" width="0.804763" height="0.804763" fill="white"/>
<rect x="22.5334" y="10.4619" width="0.804763" height="0.804763" fill="white"/>
<rect x="22.5334" y="4.82855" width="0.804763" height="0.804763" fill="white"/>
<rect x="22.5334" y="16.0952" width="0.804763" height="0.804763" fill="white"/>
<rect x="22.5334" y="18.5095" width="0.804763" height="0.804763" fill="white"/>
<rect x="22.5334" y="20.1191" width="0.804763" height="0.804763" fill="white"/>
<rect x="22.5334" y="21.7286" width="0.804763" height="0.804763" fill="white"/>
<rect x="23.3381" y="13.681" width="0.804763" height="0.804763" fill="white"/>
<rect x="23.3381" y="8.04764" width="0.804763" height="0.804763" fill="white"/>
<rect x="24.1429" y="8.04764" width="0.804763" height="0.804763" fill="white"/>
<rect x="23.3381" y="10.4619" width="0.804763" height="0.804763" fill="white"/>
<rect x="23.3381" y="4.82855" width="0.804763" height="0.804763" fill="white"/>
<rect x="23.3381" y="16.0952" width="0.804763" height="0.804763" fill="white"/>
<rect x="23.3381" y="18.5095" width="0.804763" height="0.804763" fill="white"/>
<rect x="23.3381" y="20.1191" width="0.804763" height="0.804763" fill="white"/>
<rect x="23.3381" y="21.7286" width="0.804763" height="0.804763" fill="white"/>
<rect x="24.1429" y="13.681" width="0.804763" height="0.804763" fill="white"/>
<rect x="24.1429" y="10.4619" width="0.804763" height="0.804763" fill="white"/>
<rect x="24.1429" y="16.0952" width="0.804763" height="0.804763" fill="white"/>
<rect x="24.1429" y="18.5095" width="0.804763" height="0.804763" fill="white"/>
<rect x="24.1429" y="20.1191" width="0.804763" height="0.804763" fill="white"/>
<rect x="24.9477" y="13.681" width="0.804763" height="0.804763" fill="white"/>
<rect x="24.9477" y="10.4619" width="0.804763" height="0.804763" fill="white"/>
<rect x="24.9477" y="16.0952" width="0.804763" height="0.804763" fill="white"/>
<rect x="24.9477" y="18.5095" width="0.804763" height="0.804763" fill="white"/>
<rect x="24.9477" y="20.1191" width="0.804763" height="0.804763" fill="white"/>
<rect x="25.7524" y="13.681" width="0.804763" height="0.804763" fill="white"/>
<rect x="25.7524" y="10.4619" width="0.804763" height="0.804763" fill="white"/>
<rect x="25.7524" y="16.0952" width="0.804763" height="0.804763" fill="white"/>
<rect x="25.7524" y="18.5095" width="0.804763" height="0.804763" fill="white"/>
<rect x="25.7524" y="20.1191" width="0.804763" height="0.804763" fill="white"/>
<rect x="26.5572" y="13.681" width="0.804763" height="0.804763" fill="white"/>
<rect x="26.5572" y="10.4619" width="0.804763" height="0.804763" fill="white"/>
<rect x="26.5572" y="16.0952" width="0.804763" height="0.804763" fill="white"/>
<rect x="26.5572" y="18.5095" width="0.804763" height="0.804763" fill="white"/>
<rect x="26.5572" y="20.1191" width="0.804763" height="0.804763" fill="white"/>
<rect x="27.3619" y="13.681" width="0.804763" height="0.804763" fill="white"/>
<rect x="27.3619" y="10.4619" width="0.804763" height="0.804763" fill="white"/>
<rect x="27.3619" y="16.0952" width="0.804763" height="0.804763" fill="white"/>
<rect x="27.3619" y="18.5095" width="0.804763" height="0.804763" fill="white"/>
<rect x="27.3619" y="20.1191" width="0.804763" height="0.804763" fill="white"/>
<rect x="28.9715" y="20.1191" width="0.804763" height="0.804763" fill="white"/>
<rect x="28.1667" y="13.681" width="0.804763" height="0.804763" fill="white"/>
<rect x="28.1667" y="10.4619" width="0.804763" height="0.804763" fill="white"/>
<rect x="28.1667" y="16.0952" width="0.804763" height="0.804763" fill="white"/>
<rect x="28.1667" y="18.5095" width="0.804763" height="0.804763" fill="white"/>
<rect x="28.1667" y="20.1191" width="0.804763" height="0.804763" fill="white"/>
<rect x="29.7762" y="20.1191" width="0.804763" height="0.804763" fill="white"/>
<rect x="28.9715" y="13.681" width="0.804763" height="0.804763" fill="white"/>
<rect x="28.9715" y="10.4619" width="0.804763" height="0.804763" fill="white"/>
<rect x="28.9715" y="16.0952" width="0.804763" height="0.804763" fill="white"/>
<rect x="28.9715" y="18.5095" width="0.804763" height="0.804763" fill="white"/>
<rect x="30.581" y="18.5095" width="0.804763" height="0.804763" fill="white"/>
<rect x="29.7762" y="13.681" width="0.804763" height="0.804763" fill="white"/>
<rect x="29.7762" y="16.9" width="0.804763" height="0.804763" fill="white"/>
<rect x="30.581" y="13.681" width="0.804763" height="0.804763" fill="white"/>
<rect x="31.3857" y="13.681" width="0.804763" height="0.804763" fill="white"/>
<rect x="32.1905" y="13.681" width="0.804763" height="0.804763" fill="white"/>
<rect x="1.60953" y="14.4857" width="0.804763" height="0.804763" fill="white"/>
<rect x="2.41429" y="14.4857" width="0.804763" height="0.804763" fill="white"/>
<rect x="3.21906" y="14.4857" width="0.804763" height="0.804763" fill="white"/>
<rect x="3.21906" y="16.0952" width="0.804763" height="0.804763" fill="white"/>
<rect x="4.02382" y="14.4857" width="0.804763" height="0.804763" fill="white"/>
<rect x="4.02382" y="11.2667" width="0.804763" height="0.804763" fill="white"/>
<rect x="4.02382" y="16.9" width="0.804763" height="0.804763" fill="white"/>
<rect x="4.82858" y="14.4857" width="0.804763" height="0.804763" fill="white"/>
<rect x="4.82858" y="11.2667" width="0.804763" height="0.804763" fill="white"/>
<rect x="4.82858" y="16.9" width="0.804763" height="0.804763" fill="white"/>
<rect x="4.82858" y="17.7048" width="0.804763" height="0.804763" fill="white"/>
<rect x="5.63335" y="14.4857" width="0.804763" height="0.804763" fill="white"/>
<rect x="5.63335" y="11.2667" width="0.804763" height="0.804763" fill="white"/>
<rect x="5.63335" y="16.9" width="0.804763" height="0.804763" fill="#64CDEC"/>
<rect x="5.63335" y="19.3143" width="0.804763" height="0.804763" fill="white"/>
<rect x="6.4381" y="14.4857" width="0.804763" height="0.804763" fill="white"/>
<rect x="6.4381" y="11.2667" width="0.804763" height="0.804763" fill="white"/>
<rect x="6.4381" y="16.9" width="0.804763" height="0.804763" fill="#64CDEC"/>
<rect x="6.4381" y="19.3143" width="0.804763" height="0.804763" fill="white"/>
<rect x="7.24286" y="14.4857" width="0.804763" height="0.804763" fill="white"/>
<rect x="7.24286" y="11.2667" width="0.804763" height="0.804763" fill="white"/>
<rect x="7.24286" y="16.9" width="0.804763" height="0.804763" fill="white"/>
<rect x="7.24286" y="19.3143" width="0.804763" height="0.804763" fill="white"/>
<rect x="8.04762" y="14.4857" width="0.804763" height="0.804763" fill="white"/>
<rect x="8.04762" y="11.2667" width="0.804763" height="0.804763" fill="white"/>
<rect x="8.04762" y="16.9" width="0.804763" height="0.804763" fill="white"/>
<rect x="8.04762" y="19.3143" width="0.804763" height="0.804763" fill="white"/>
<rect x="8.8524" y="14.4857" width="0.804763" height="0.804763" fill="white"/>
<rect x="8.8524" y="11.2667" width="0.804763" height="0.804763" fill="white"/>
<rect x="8.8524" y="16.9" width="0.804763" height="0.804763" fill="#64CDEC"/>
<rect x="8.8524" y="19.3143" width="0.804763" height="0.804763" fill="white"/>
<rect x="9.65715" y="14.4857" width="0.804763" height="0.804763" fill="white"/>
<rect x="9.65715" y="11.2667" width="0.804763" height="0.804763" fill="white"/>
<rect x="9.65715" y="16.9" width="0.804763" height="0.804763" fill="#64CDEC"/>
<rect x="9.65715" y="19.3143" width="0.804763" height="0.804763" fill="white"/>
<rect x="9.65715" y="20.9238" width="0.804763" height="0.804763" fill="white"/>
<rect x="10.4619" y="14.4857" width="0.804763" height="0.804763" fill="white"/>
<rect x="10.4619" y="11.2667" width="0.804763" height="0.804763" fill="white"/>
<rect x="10.4619" y="16.9" width="0.804763" height="0.804763" fill="white"/>
<rect x="10.4619" y="19.3143" width="0.804763" height="0.804763" fill="white"/>
<rect x="10.4619" y="20.9238" width="0.804763" height="0.804763" fill="white"/>
<rect x="11.2667" y="14.4857" width="0.804763" height="0.804763" fill="white"/>
<rect x="11.2667" y="8.85236" width="0.804763" height="0.804763" fill="white"/>
<rect x="11.2667" y="11.2667" width="0.804763" height="0.804763" fill="white"/>
<rect x="11.2667" y="5.63336" width="0.804763" height="0.804763" fill="white"/>
<rect x="11.2667" y="16.9" width="0.804763" height="0.804763" fill="white"/>
<rect x="11.2667" y="19.3143" width="0.804763" height="0.804763" fill="white"/>
<rect x="11.2667" y="20.9238" width="0.804763" height="0.804763" fill="white"/>
<rect x="12.0714" y="14.4857" width="0.804763" height="0.804763" fill="white"/>
<rect x="12.0714" y="8.85236" width="0.804763" height="0.804763" fill="white"/>
<rect x="12.0714" y="11.2667" width="0.804763" height="0.804763" fill="white"/>
<rect x="12.0714" y="5.63336" width="0.804763" height="0.804763" fill="white"/>
<rect x="12.0714" y="16.9" width="0.804763" height="0.804763" fill="white"/>
<rect x="12.0714" y="19.3143" width="0.804763" height="0.804763" fill="#64CDEC"/>
<rect x="12.0714" y="20.9238" width="0.804763" height="0.804763" fill="white"/>
<rect x="12.0714" y="22.5333" width="0.804763" height="0.804763" fill="white"/>
<rect x="12.8762" y="14.4857" width="0.804763" height="0.804763" fill="white"/>
<rect x="12.8762" y="8.85236" width="0.804763" height="0.804763" fill="white"/>
<rect x="12.8762" y="11.2667" width="0.804763" height="0.804763" fill="white"/>
<rect x="12.8762" y="5.63336" width="0.804763" height="0.804763" fill="white"/>
<rect x="12.8762" y="16.9" width="0.804763" height="0.804763" fill="white"/>
<rect x="12.8762" y="19.3143" width="0.804763" height="0.804763" fill="#64CDEC"/>
<rect x="12.8762" y="20.9238" width="0.804763" height="0.804763" fill="white"/>
<rect x="12.8762" y="22.5333" width="0.804763" height="0.804763" fill="white"/>
<rect x="13.681" y="14.4857" width="0.804763" height="0.804763" fill="white"/>
<rect x="13.681" y="8.85236" width="0.804763" height="0.804763" fill="white"/>
<rect x="13.681" y="11.2667" width="0.804763" height="0.804763" fill="white"/>
<rect x="13.681" y="5.63336" width="0.804763" height="0.804763" fill="white"/>
<rect x="13.681" y="16.9" width="0.804763" height="0.804763" fill="white"/>
<rect x="13.681" y="19.3143" width="0.804763" height="0.804763" fill="#64CDEC"/>
<rect x="13.681" y="20.9238" width="0.804763" height="0.804763" fill="white"/>
<rect x="14.4857" y="14.4857" width="0.804763" height="0.804763" fill="white"/>
<rect x="14.4857" y="8.85236" width="0.804763" height="0.804763" fill="white"/>
<rect x="14.4857" y="11.2667" width="0.804763" height="0.804763" fill="white"/>
<rect x="14.4857" y="5.63336" width="0.804763" height="0.804763" fill="#64CDEC"/>
<rect x="14.4857" y="16.9" width="0.804763" height="0.804763" fill="white"/>
<rect x="14.4857" y="19.3143" width="0.804763" height="0.804763" fill="white"/>
<rect x="14.4857" y="20.9238" width="0.804763" height="0.804763" fill="white"/>
<rect x="15.2905" y="14.4857" width="0.804763" height="0.804763" fill="white"/>
<rect x="15.2905" y="8.85236" width="0.804763" height="0.804763" fill="white"/>
<rect x="15.2905" y="11.2667" width="0.804763" height="0.804763" fill="white"/>
<rect x="15.2905" y="5.63336" width="0.804763" height="0.804763" fill="#64CDEC"/>
<rect x="15.2905" y="3.21909" width="0.804763" height="0.804763" fill="white"/>
<rect x="15.2905" y="16.9" width="0.804763" height="0.804763" fill="white"/>
<rect x="15.2905" y="19.3143" width="0.804763" height="0.804763" fill="white"/>
<rect x="15.2905" y="20.9238" width="0.804763" height="0.804763" fill="white"/>
<rect x="16.0952" y="14.4857" width="0.804763" height="0.804763" fill="white"/>
<rect x="16.0952" y="8.85236" width="0.804763" height="0.804763" fill="white"/>
<rect x="16.0952" y="11.2667" width="0.804763" height="0.804763" fill="white"/>
<rect x="16.0952" y="5.63336" width="0.804763" height="0.804763" fill="#64CDEC"/>
<rect x="16.0952" y="3.21909" width="0.804763" height="0.804763" fill="white"/>
<rect x="12.8762" y="3.21909" width="0.804763" height="0.804763" fill="white"/>
<rect x="18.5095" y="3.21909" width="0.804763" height="0.804763" fill="white"/>
<rect x="16.0952" y="16.9" width="0.804763" height="0.804763" fill="white"/>
<rect x="16.0952" y="19.3143" width="0.804763" height="0.804763" fill="white"/>
<rect x="16.0952" y="20.9238" width="0.804763" height="0.804763" fill="white"/>
<rect x="16.9" y="14.4857" width="0.804763" height="0.804763" fill="white"/>
<rect x="16.9" y="8.85236" width="0.804763" height="0.804763" fill="white"/>
<rect x="16.9" y="11.2667" width="0.804763" height="0.804763" fill="white"/>
<rect x="16.9" y="5.63336" width="0.804763" height="0.804763" fill="white"/>
<rect x="16.9" y="3.21909" width="0.804763" height="0.804763" fill="white"/>
<rect x="13.681" y="3.21909" width="0.804763" height="0.804763" fill="white"/>
<rect x="19.3143" y="3.21909" width="0.804763" height="0.804763" fill="white"/>
<rect x="16.9" y="16.9" width="0.804763" height="0.804763" fill="#64CDEC"/>
<rect x="16.9" y="19.3143" width="0.804763" height="0.804763" fill="white"/>
<rect x="16.9" y="20.9238" width="0.804763" height="0.804763" fill="white"/>
<rect x="17.7048" y="14.4857" width="0.804763" height="0.804763" fill="white"/>
<rect x="17.7048" y="8.85236" width="0.804763" height="0.804763" fill="white"/>
<rect x="17.7048" y="11.2667" width="0.804763" height="0.804763" fill="white"/>
<rect x="17.7048" y="5.63336" width="0.804763" height="0.804763" fill="white"/>
<rect x="17.7048" y="3.21909" width="0.804763" height="0.804763" fill="white"/>
<rect x="14.4857" y="3.21909" width="0.804763" height="0.804763" fill="white"/>
<rect x="20.1191" y="3.21909" width="0.804763" height="0.804763" fill="white"/>
<rect x="17.7048" y="16.9" width="0.804763" height="0.804763" fill="white"/>
<rect x="17.7048" y="19.3143" width="0.804763" height="0.804763" fill="white"/>
<rect x="17.7048" y="20.9238" width="0.804763" height="0.804763" fill="white"/>
<rect x="18.5095" y="14.4857" width="0.804763" height="0.804763" fill="white"/>
<rect x="18.5095" y="8.85236" width="0.804763" height="0.804763" fill="white"/>
<rect x="18.5095" y="11.2667" width="0.804763" height="0.804763" fill="white"/>
<rect x="18.5095" y="5.63336" width="0.804763" height="0.804763" fill="white"/>
<rect x="18.5095" y="16.9" width="0.804763" height="0.804763" fill="white"/>
<rect x="18.5095" y="19.3143" width="0.804763" height="0.804763" fill="#64CDEC"/>
<rect x="18.5095" y="20.9238" width="0.804763" height="0.804763" fill="white"/>
<rect x="19.3143" y="14.4857" width="0.804763" height="0.804763" fill="white"/>
<rect x="19.3143" y="8.85236" width="0.804763" height="0.804763" fill="white"/>
<rect x="19.3143" y="11.2667" width="0.804763" height="0.804763" fill="white"/>
<rect x="19.3143" y="5.63336" width="0.804763" height="0.804763" fill="white"/>
<rect x="19.3143" y="16.9" width="0.804763" height="0.804763" fill="white"/>
<rect x="19.3143" y="19.3143" width="0.804763" height="0.804763" fill="#64CDEC"/>
<rect x="19.3143" y="20.9238" width="0.804763" height="0.804763" fill="white"/>
<rect x="20.1191" y="14.4857" width="0.804763" height="0.804763" fill="white"/>
<rect x="20.1191" y="8.85236" width="0.804763" height="0.804763" fill="white"/>
<rect x="20.1191" y="11.2667" width="0.804763" height="0.804763" fill="white"/>
<rect x="20.1191" y="5.63336" width="0.804763" height="0.804763" fill="#64CDEC"/>
<rect x="20.1191" y="16.9" width="0.804763" height="0.804763" fill="white"/>
<rect x="20.1191" y="19.3143" width="0.804763" height="0.804763" fill="#64CDEC"/>
<rect x="20.1191" y="20.9238" width="0.804763" height="0.804763" fill="white"/>
<rect x="20.1191" y="22.5333" width="0.804763" height="0.804763" fill="white"/>
<rect x="20.9238" y="14.4857" width="0.804763" height="0.804763" fill="white"/>
<rect x="20.9238" y="8.85236" width="0.804763" height="0.804763" fill="white"/>
<rect x="20.9238" y="11.2667" width="0.804763" height="0.804763" fill="white"/>
<rect x="20.9238" y="5.63336" width="0.804763" height="0.804763" fill="#64CDEC"/>
<rect x="20.9238" y="16.9" width="0.804763" height="0.804763" fill="white"/>
<rect x="20.9238" y="19.3143" width="0.804763" height="0.804763" fill="white"/>
<rect x="20.9238" y="20.9238" width="0.804763" height="0.804763" fill="white"/>
<rect x="20.9238" y="22.5333" width="0.804763" height="0.804763" fill="white"/>
<rect x="21.7286" y="14.4857" width="0.804763" height="0.804763" fill="white"/>
<rect x="21.7286" y="8.85236" width="0.804763" height="0.804763" fill="white"/>
<rect x="21.7286" y="11.2667" width="0.804763" height="0.804763" fill="white"/>
<rect x="21.7286" y="5.63336" width="0.804763" height="0.804763" fill="white"/>
<rect x="21.7286" y="16.9" width="0.804763" height="0.804763" fill="white"/>
<rect x="21.7286" y="19.3143" width="0.804763" height="0.804763" fill="white"/>
<rect x="21.7286" y="20.9238" width="0.804763" height="0.804763" fill="white"/>
<rect x="21.7286" y="22.5333" width="0.804763" height="0.804763" fill="white"/>
<rect x="22.5334" y="14.4857" width="0.804763" height="0.804763" fill="white"/>
<rect x="22.5334" y="8.85236" width="0.804763" height="0.804763" fill="white"/>
<rect x="22.5334" y="11.2667" width="0.804763" height="0.804763" fill="white"/>
<rect x="22.5334" y="5.63336" width="0.804763" height="0.804763" fill="white"/>
<rect x="22.5334" y="16.9" width="0.804763" height="0.804763" fill="#64CDEC"/>
<rect x="22.5334" y="19.3143" width="0.804763" height="0.804763" fill="white"/>
<rect x="22.5334" y="20.9238" width="0.804763" height="0.804763" fill="white"/>
<rect x="23.3381" y="14.4857" width="0.804763" height="0.804763" fill="white"/>
<rect x="23.3381" y="8.85236" width="0.804763" height="0.804763" fill="white"/>
<rect x="24.1429" y="8.85236" width="0.804763" height="0.804763" fill="white"/>
<rect x="23.3381" y="11.2667" width="0.804763" height="0.804763" fill="white"/>
<rect x="23.3381" y="5.63336" width="0.804763" height="0.804763" fill="white"/>
<rect x="23.3381" y="16.9" width="0.804763" height="0.804763" fill="white"/>
<rect x="23.3381" y="19.3143" width="0.804763" height="0.804763" fill="white"/>
<rect x="23.3381" y="20.9238" width="0.804763" height="0.804763" fill="white"/>
<rect x="24.1429" y="14.4857" width="0.804763" height="0.804763" fill="white"/>
<rect x="24.1429" y="11.2667" width="0.804763" height="0.804763" fill="white"/>
<rect x="24.1429" y="16.9" width="0.804763" height="0.804763" fill="white"/>
<rect x="24.1429" y="19.3143" width="0.804763" height="0.804763" fill="white"/>
<rect x="24.1429" y="20.9238" width="0.804763" height="0.804763" fill="white"/>
<rect x="24.9477" y="14.4857" width="0.804763" height="0.804763" fill="white"/>
<rect x="24.9477" y="11.2667" width="0.804763" height="0.804763" fill="white"/>
<rect x="24.9477" y="16.9" width="0.804763" height="0.804763" fill="white"/>
<rect x="24.9477" y="19.3143" width="0.804763" height="0.804763" fill="white"/>
<rect x="24.9477" y="20.9238" width="0.804763" height="0.804763" fill="white"/>
<rect x="25.7524" y="14.4857" width="0.804763" height="0.804763" fill="white"/>
<rect x="25.7524" y="11.2667" width="0.804763" height="0.804763" fill="white"/>
<rect x="25.7524" y="16.9" width="0.804763" height="0.804763" fill="white"/>
<rect x="25.7524" y="19.3143" width="0.804763" height="0.804763" fill="white"/>
<rect x="25.7524" y="20.9238" width="0.804763" height="0.804763" fill="white"/>
<rect x="26.5572" y="14.4857" width="0.804763" height="0.804763" fill="white"/>
<rect x="26.5572" y="11.2667" width="0.804763" height="0.804763" fill="white"/>
<rect x="26.5572" y="16.9" width="0.804763" height="0.804763" fill="white"/>
<rect x="26.5572" y="19.3143" width="0.804763" height="0.804763" fill="white"/>
<rect x="26.5572" y="20.9238" width="0.804763" height="0.804763" fill="white"/>
<rect x="27.3619" y="14.4857" width="0.804763" height="0.804763" fill="white"/>
<rect x="27.3619" y="11.2667" width="0.804763" height="0.804763" fill="white"/>
<rect x="27.3619" y="16.9" width="0.804763" height="0.804763" fill="white"/>
<rect x="27.3619" y="19.3143" width="0.804763" height="0.804763" fill="white"/>
<rect x="29.7762" y="19.3143" width="0.804763" height="0.804763" fill="white"/>
<rect x="27.3619" y="20.9238" width="0.804763" height="0.804763" fill="white"/>
<rect x="27.3619" y="21.7286" width="0.804763" height="0.804763" fill="white"/>
<rect x="28.1667" y="14.4857" width="0.804763" height="0.804763" fill="white"/>
<rect x="28.1667" y="11.2667" width="0.804763" height="0.804763" fill="white"/>
<rect x="28.1667" y="16.9" width="0.804763" height="0.804763" fill="white"/>
<rect x="28.1667" y="19.3143" width="0.804763" height="0.804763" fill="white"/>
<rect x="30.581" y="19.3143" width="0.804763" height="0.804763" fill="white"/>
<rect x="28.1667" y="20.9238" width="0.804763" height="0.804763" fill="white"/>
<rect x="28.9715" y="14.4857" width="0.804763" height="0.804763" fill="white"/>
<rect x="28.9715" y="11.2667" width="0.804763" height="0.804763" fill="white"/>
<rect x="28.9715" y="16.9" width="0.804763" height="0.804763" fill="white"/>
<rect x="28.9715" y="19.3143" width="0.804763" height="0.804763" fill="white"/>
<rect x="31.3857" y="19.3143" width="0.804763" height="0.804763" fill="white"/>
<rect x="29.7762" y="14.4857" width="0.804763" height="0.804763" fill="white"/>
<rect x="29.7762" y="17.7048" width="0.804763" height="0.804763" fill="white"/>
<rect x="29.7762" y="15.2905" width="0.804763" height="0.804763" fill="white"/>
<rect x="29.7762" y="18.5095" width="0.804763" height="0.804763" fill="white"/>
<rect x="31.3857" y="18.5095" width="0.804763" height="0.804763" fill="white"/>
<rect x="30.581" y="14.4857" width="0.804763" height="0.804763" fill="white"/>
<rect x="30.581" y="15.2905" width="0.804763" height="0.804763" fill="white"/>
<rect x="31.3857" y="14.4857" width="0.804763" height="0.804763" fill="white"/>
<rect x="0.804764" y="12.0714" width="0.804763" height="0.804763" fill="#3E3E3E"/>
<rect x="1.60953" y="12.0714" width="0.804763" height="0.804763" fill="#3E3E3E"/>
<rect x="2.41429" y="12.0714" width="0.804763" height="0.804763" fill="#3E3E3E"/>
<rect x="2.41429" y="11.2667" width="0.804763" height="0.804763" fill="#3E3E3E"/>
<rect x="2.41429" y="10.4619" width="0.804763" height="0.804763" fill="#3E3E3E"/>
<rect x="3.21906" y="10.4619" width="0.804763" height="0.804763" fill="#3E3E3E"/>
<rect x="3.21906" y="9.65718" width="0.804763" height="0.804763" fill="#3E3E3E"/>
<rect x="4.02382" y="9.65718" width="0.804763" height="0.804763" fill="#3E3E3E"/>
<rect x="4.82858" y="9.65718" width="0.804763" height="0.804763" fill="#3E3E3E"/>
<rect x="4.82858" y="8.85236" width="0.804763" height="0.804763" fill="#3E3E3E"/>
<rect x="5.63335" y="8.85236" width="0.804763" height="0.804763" fill="#3E3E3E"/>
<rect x="5.63335" y="8.04764" width="0.804763" height="0.804763" fill="#3E3E3E"/>
<rect x="6.4381" y="8.04764" width="0.804763" height="0.804763" fill="#3E3E3E"/>
<rect x="7.24286" y="8.04764" width="0.804763" height="0.804763" fill="#3E3E3E"/>
<rect x="8.04762" y="8.04764" width="0.804763" height="0.804763" fill="#3E3E3E"/>
<rect x="8.04762" y="7.24289" width="0.804763" height="0.804763" fill="#3E3E3E"/>
<rect x="8.8524" y="7.24289" width="0.804763" height="0.804763" fill="#3E3E3E"/>
<rect x="8.8524" y="6.43808" width="0.804763" height="0.804763" fill="#3E3E3E"/>
<rect x="9.65715" y="6.43808" width="0.804763" height="0.804763" fill="#3E3E3E"/>
<rect x="9.65715" y="5.63336" width="0.804763" height="0.804763" fill="#3E3E3E"/>
<rect x="10.4619" y="5.63336" width="0.804763" height="0.804763" fill="#3E3E3E"/>
<rect x="10.4619" y="4.82855" width="0.804763" height="0.804763" fill="#3E3E3E"/>
<rect x="11.2667" y="4.82855" width="0.804763" height="0.804763" fill="#3E3E3E"/>
<rect x="11.2667" y="4.0238" width="0.804763" height="0.804763" fill="#3E3E3E"/>
<rect x="11.2667" y="3.21909" width="0.804763" height="0.804763" fill="#3E3E3E"/>
<rect x="12.0714" y="3.21909" width="0.804763" height="0.804763" fill="#3E3E3E"/>
<rect x="12.0714" y="2.41426" width="0.804763" height="0.804763" fill="#3E3E3E"/>
<rect x="12.8762" y="2.41426" width="0.804763" height="0.804763" fill="#3E3E3E"/>
<rect x="12.8762" y="1.60954" width="0.804763" height="0.804763" fill="#3E3E3E"/>
<rect x="13.681" y="1.60954" width="0.804763" height="0.804763" fill="#3E3E3E"/>
<rect x="13.681" y="0.804733" width="0.804763" height="0.804763" fill="#3E3E3E"/>
<rect x="14.4857" y="0.804733" width="0.804763" height="0.804763" fill="#3E3E3E"/>
<rect x="14.4857" width="0.804763" height="0.804763" fill="#3E3E3E"/>
</svg>
